<?xml version="1.0" encoding="utf-8" standalone="no"?>
<!DOCTYPE svg PUBLIC "-//W3C//DTD SVG 1.1//EN"
  "http://www.w3.org/Graphics/SVG/1.1/DTD/svg11.dtd">
<!-- Created with matplotlib (http://matplotlib.org/) -->
<svg height="360pt" version="1.1" viewBox="0 0 360 360" width="360pt" xmlns="http://www.w3.org/2000/svg" xmlns:xlink="http://www.w3.org/1999/xlink">
 <defs>
  <style type="text/css">
*{stroke-linecap:butt;stroke-linejoin:round;}
  </style>
 </defs>
 <g id="figure_1">
  <g id="patch_1">
   <path d="M 0 360 
L 360 360 
L 360 0 
L 0 0 
z
" style="fill:#ffffff;"/>
  </g>
  <g id="axes_1">
   <g id="patch_2">
    <path d="M 67.84 307.96625 
L 333.72 307.96625 
L 333.72 32.236875 
L 67.84 32.236875 
z
" style="fill:#ffffff;"/>
   </g>
   <g id="patch_3">
    <path clip-path="url(#p5cbbb793b5)" d="M 67.84 307.96625 
L 94.428 307.96625 
L 94.428 305.208956 
L 67.84 305.208956 
z
" style="fill:#800080;"/>
   </g>
   <g id="patch_4">
    <path clip-path="url(#p5cbbb793b5)" d="M 94.428 307.96625 
L 121.016 307.96625 
L 121.016 296.247752 
L 94.428 296.247752 
z
" style="fill:#800080;"/>
   </g>
   <g id="patch_5">
    <path clip-path="url(#p5cbbb793b5)" d="M 121.016 307.96625 
L 147.604 307.96625 
L 147.604 250.063081 
L 121.016 250.063081 
z
" style="fill:#800080;"/>
   </g>
   <g id="patch_6">
    <path clip-path="url(#p5cbbb793b5)" d="M 147.604 307.96625 
L 174.192 307.96625 
L 174.192 181.820061 
L 147.604 181.820061 
z
" style="fill:#800080;"/>
   </g>
   <g id="patch_7">
    <path clip-path="url(#p5cbbb793b5)" d="M 174.192 307.96625 
L 200.78 307.96625 
L 200.78 107.37313 
L 174.192 107.37313 
z
" style="fill:#800080;"/>
   </g>
   <g id="patch_8">
    <path clip-path="url(#p5cbbb793b5)" d="M 200.78 307.96625 
L 227.368 307.96625 
L 227.368 64.635077 
L 200.78 64.635077 
z
" style="fill:#800080;"/>
   </g>
   <g id="patch_9">
    <path clip-path="url(#p5cbbb793b5)" d="M 227.368 307.96625 
L 253.956 307.96625 
L 253.956 81.868162 
L 227.368 81.868162 
z
" style="fill:#800080;"/>
   </g>
   <g id="patch_10">
    <path clip-path="url(#p5cbbb793b5)" d="M 253.956 307.96625 
L 280.544 307.96625 
L 280.544 192.849236 
L 253.956 192.849236 
z
" style="fill:#800080;"/>
   </g>
   <g id="patch_11">
    <path clip-path="url(#p5cbbb793b5)" d="M 280.544 307.96625 
L 307.132 307.96625 
L 307.132 267.296167 
L 280.544 267.296167 
z
" style="fill:#800080;"/>
   </g>
   <g id="patch_12">
    <path clip-path="url(#p5cbbb793b5)" d="M 307.132 307.96625 
L 333.72 307.96625 
L 333.72 299.694369 
L 307.132 299.694369 
z
" style="fill:#800080;"/>
   </g>
   <g id="matplotlib.axis_1">
    <g id="xtick_1">
     <g id="line2d_1">
      <defs>
       <path d="M 0 0 
L 0 3.5 
" id="m497a58ab8f" style="stroke:#000000;stroke-width:0.8;"/>
      </defs>
      <g>
       <use style="stroke:#000000;stroke-width:0.8;" x="126.018842" xlink:href="#m497a58ab8f" y="307.96625"/>
      </g>
     </g>
     <g id="text_1">
      <!-- −2 -->
      <defs>
       <path d="M 5.296875 33.40625 
L 51.09375 33.40625 
L 51.09375 25.5 
L 5.296875 25.5 
z
" id="Ubuntu-2212"/>
       <path d="M 46.703125 51.59375 
Q 46.703125 48 45.25 44.640625 
Q 43.796875 41.296875 41.390625 38.046875 
Q 39 34.796875 36 31.640625 
Q 33 28.5 30 25.5 
Q 28.296875 23.796875 26.046875 21.5 
Q 23.796875 19.203125 21.796875 16.703125 
Q 19.796875 14.203125 18.4375 11.890625 
Q 17.09375 9.59375 17.09375 7.90625 
L 49 7.90625 
L 49 0 
L 7 0 
Q 6.90625 0.59375 6.90625 1.1875 
Q 6.90625 1.796875 6.90625 2.296875 
Q 6.90625 7 8.453125 11.046875 
Q 10 15.09375 12.5 18.6875 
Q 15 22.296875 18.09375 25.5 
Q 21.203125 28.703125 24.203125 31.703125 
Q 26.703125 34.09375 28.953125 36.4375 
Q 31.203125 38.796875 32.953125 41.140625 
Q 34.703125 43.5 35.75 46 
Q 36.796875 48.5 36.796875 51.296875 
Q 36.796875 54.296875 35.84375 56.390625 
Q 34.90625 58.5 33.296875 59.890625 
Q 31.703125 61.296875 29.546875 61.9375 
Q 27.40625 62.59375 25 62.59375 
Q 22.09375 62.59375 19.6875 61.796875 
Q 17.296875 61 15.390625 59.953125 
Q 13.5 58.90625 12.203125 57.75 
Q 10.90625 56.59375 10.203125 56 
L 5.59375 62.59375 
Q 6.5 63.59375 8.296875 65.046875 
Q 10.09375 66.5 12.59375 67.796875 
Q 15.09375 69.09375 18.1875 70 
Q 21.296875 70.90625 24.90625 70.90625 
Q 35.796875 70.90625 41.25 65.84375 
Q 46.703125 60.796875 46.703125 51.59375 
z
" id="Ubuntu-32"/>
      </defs>
      <g transform="translate(113.609467 332.036875)scale(0.22 -0.22)">
       <use xlink:href="#Ubuntu-2212"/>
       <use x="56.399994" xlink:href="#Ubuntu-32"/>
      </g>
     </g>
    </g>
    <g id="xtick_2">
     <g id="line2d_2">
      <g>
       <use style="stroke:#000000;stroke-width:0.8;" x="211.984434" xlink:href="#m497a58ab8f" y="307.96625"/>
      </g>
     </g>
     <g id="text_2">
      <!-- 0 -->
      <defs>
       <path d="M 5 34.703125 
Q 5 52.09375 11.140625 61.5 
Q 17.296875 70.90625 28.203125 70.90625 
Q 39.09375 70.90625 45.25 61.5 
Q 51.40625 52.09375 51.40625 34.703125 
Q 51.40625 17.296875 45.25 7.890625 
Q 39.09375 -1.5 28.203125 -1.5 
Q 17.296875 -1.5 11.140625 7.890625 
Q 5 17.296875 5 34.703125 
z
M 41.59375 34.703125 
Q 41.59375 40.40625 40.9375 45.5 
Q 40.296875 50.59375 38.75 54.390625 
Q 37.203125 58.203125 34.59375 60.453125 
Q 32 62.703125 28.203125 62.703125 
Q 24.40625 62.703125 21.796875 60.453125 
Q 19.203125 58.203125 17.640625 54.390625 
Q 16.09375 50.59375 15.4375 45.5 
Q 14.796875 40.40625 14.796875 34.703125 
Q 14.796875 29 15.4375 23.890625 
Q 16.09375 18.796875 17.640625 15 
Q 19.203125 11.203125 21.796875 8.953125 
Q 24.40625 6.703125 28.203125 6.703125 
Q 32 6.703125 34.59375 8.953125 
Q 37.203125 11.203125 38.75 15 
Q 40.296875 18.796875 40.9375 23.890625 
Q 41.59375 29 41.59375 34.703125 
z
" id="Ubuntu-30"/>
      </defs>
      <g transform="translate(205.779746 332.036875)scale(0.22 -0.22)">
       <use xlink:href="#Ubuntu-30"/>
      </g>
     </g>
    </g>
    <g id="xtick_3">
     <g id="line2d_3">
      <g>
       <use style="stroke:#000000;stroke-width:0.8;" x="297.950026" xlink:href="#m497a58ab8f" y="307.96625"/>
      </g>
     </g>
     <g id="text_3">
      <!-- 2 -->
      <g transform="translate(291.745338 332.036875)scale(0.22 -0.22)">
       <use xlink:href="#Ubuntu-32"/>
      </g>
     </g>
    </g>
   </g>
   <g id="matplotlib.axis_2">
    <g id="ytick_1">
     <g id="line2d_4">
      <defs>
       <path d="M 0 0 
L -3.5 0 
" id="me37f969ebb" style="stroke:#000000;stroke-width:0.8;"/>
      </defs>
      <g>
       <use style="stroke:#000000;stroke-width:0.8;" x="67.84" xlink:href="#me37f969ebb" y="307.96625"/>
      </g>
     </g>
     <g id="text_4">
      <!-- 0 -->
      <g transform="translate(48.430625 316.501563)scale(0.22 -0.22)">
       <use xlink:href="#Ubuntu-30"/>
      </g>
     </g>
    </g>
    <g id="ytick_2">
     <g id="line2d_5">
      <g>
       <use style="stroke:#000000;stroke-width:0.8;" x="67.84" xlink:href="#me37f969ebb" y="239.033906"/>
      </g>
     </g>
     <g id="text_5">
      <!-- 100 -->
      <defs>
       <path d="M 9.296875 55 
Q 15 57.203125 20.390625 60.640625 
Q 25.796875 64.09375 30.296875 69.296875 
L 36.90625 69.296875 
L 36.90625 0 
L 27.59375 0 
L 27.59375 56.40625 
Q 26.40625 55.296875 24.65625 54.09375 
Q 22.90625 52.90625 20.84375 51.796875 
Q 18.796875 50.703125 16.546875 49.703125 
Q 14.296875 48.703125 12.203125 48 
z
" id="Ubuntu-31"/>
      </defs>
      <g transform="translate(23.611875 247.569219)scale(0.22 -0.22)">
       <use xlink:href="#Ubuntu-31"/>
       <use x="56.399994" xlink:href="#Ubuntu-30"/>
       <use x="112.799988" xlink:href="#Ubuntu-30"/>
      </g>
     </g>
    </g>
    <g id="ytick_3">
     <g id="line2d_6">
      <g>
       <use style="stroke:#000000;stroke-width:0.8;" x="67.84" xlink:href="#me37f969ebb" y="170.101562"/>
      </g>
     </g>
     <g id="text_6">
      <!-- 200 -->
      <g transform="translate(23.611875 178.636875)scale(0.22 -0.22)">
       <use xlink:href="#Ubuntu-32"/>
       <use x="56.399994" xlink:href="#Ubuntu-30"/>
       <use x="112.799988" xlink:href="#Ubuntu-30"/>
      </g>
     </g>
    </g>
    <g id="ytick_4">
     <g id="line2d_7">
      <g>
       <use style="stroke:#000000;stroke-width:0.8;" x="67.84" xlink:href="#me37f969ebb" y="101.169219"/>
      </g>
     </g>
     <g id="text_7">
      <!-- 300 -->
      <defs>
       <path d="M 22.59375 6.796875 
Q 31.5 6.796875 35.34375 10.296875 
Q 39.203125 13.796875 39.203125 19.703125 
Q 39.203125 23.5 37.59375 26.09375 
Q 36 28.703125 33.390625 30.25 
Q 30.796875 31.796875 27.34375 32.4375 
Q 23.90625 33.09375 20.296875 33.09375 
L 17.90625 33.09375 
L 17.90625 40.703125 
L 21.203125 40.703125 
Q 23.703125 40.703125 26.34375 41.203125 
Q 29 41.703125 31.203125 43 
Q 33.40625 44.296875 34.796875 46.546875 
Q 36.203125 48.796875 36.203125 52.203125 
Q 36.203125 55 35.203125 57 
Q 34.203125 59 32.546875 60.296875 
Q 30.90625 61.59375 28.75 62.140625 
Q 26.59375 62.703125 24.203125 62.703125 
Q 19.40625 62.703125 16.046875 61.296875 
Q 12.703125 59.90625 10.40625 58.40625 
L 6.796875 65.5 
Q 8 66.296875 9.84375 67.25 
Q 11.703125 68.203125 14 69 
Q 16.296875 69.796875 18.9375 70.34375 
Q 21.59375 70.90625 24.5 70.90625 
Q 30 70.90625 34 69.546875 
Q 38 68.203125 40.59375 65.75 
Q 43.203125 63.296875 44.5 59.9375 
Q 45.796875 56.59375 45.796875 52.703125 
Q 45.796875 47.296875 42.6875 43.4375 
Q 39.59375 39.59375 35.203125 37.59375 
Q 37.90625 36.796875 40.40625 35.296875 
Q 42.90625 33.796875 44.75 31.5 
Q 46.59375 29.203125 47.75 26.203125 
Q 48.90625 23.203125 48.90625 19.5 
Q 48.90625 15 47.34375 11.140625 
Q 45.796875 7.296875 42.546875 4.5 
Q 39.296875 1.703125 34.390625 0.09375 
Q 29.5 -1.5 22.796875 -1.5 
Q 20.203125 -1.5 17.453125 -1.09375 
Q 14.703125 -0.703125 12.296875 -0.09375 
Q 9.90625 0.5 8.09375 1.09375 
Q 6.296875 1.703125 5.5 2.09375 
L 7.296875 10.203125 
Q 9 9.40625 12.953125 8.09375 
Q 16.90625 6.796875 22.59375 6.796875 
z
" id="Ubuntu-33"/>
      </defs>
      <g transform="translate(23.611875 109.704531)scale(0.22 -0.22)">
       <use xlink:href="#Ubuntu-33"/>
       <use x="56.399994" xlink:href="#Ubuntu-30"/>
       <use x="112.799988" xlink:href="#Ubuntu-30"/>
      </g>
     </g>
    </g>
    <g id="ytick_5">
     <g id="line2d_8">
      <g>
       <use style="stroke:#000000;stroke-width:0.8;" x="67.84" xlink:href="#me37f969ebb" y="32.236875"/>
      </g>
     </g>
     <g id="text_8">
      <!-- 400 -->
      <defs>
       <path d="M 4 24 
Q 5.90625 28.40625 9.203125 34.25 
Q 12.5 40.09375 16.640625 46.296875 
Q 20.796875 52.5 25.546875 58.5 
Q 30.296875 64.5 35.09375 69.296875 
L 44 69.296875 
L 44 25.296875 
L 52.203125 25.296875 
L 52.203125 17.703125 
L 44 17.703125 
L 44 0 
L 35 0 
L 35 17.703125 
L 4 17.703125 
z
M 35 58.296875 
Q 32 55.09375 28.953125 51.140625 
Q 25.90625 47.203125 23 42.890625 
Q 20.09375 38.59375 17.546875 34.09375 
Q 15 29.59375 13 25.296875 
L 35 25.296875 
z
" id="Ubuntu-34"/>
      </defs>
      <g transform="translate(23.611875 40.772187)scale(0.22 -0.22)">
       <use xlink:href="#Ubuntu-34"/>
       <use x="56.399994" xlink:href="#Ubuntu-30"/>
       <use x="112.799988" xlink:href="#Ubuntu-30"/>
      </g>
     </g>
    </g>
   </g>
   <g id="patch_13">
    <path d="M 67.84 307.96625 
L 67.84 32.236875 
" style="fill:none;stroke:#000000;stroke-linecap:square;stroke-linejoin:miter;stroke-width:0.8;"/>
   </g>
   <g id="patch_14">
    <path d="M 333.72 307.96625 
L 333.72 32.236875 
" style="fill:none;stroke:#000000;stroke-linecap:square;stroke-linejoin:miter;stroke-width:0.8;"/>
   </g>
   <g id="patch_15">
    <path d="M 67.84 307.96625 
L 333.72 307.96625 
" style="fill:none;stroke:#000000;stroke-linecap:square;stroke-linejoin:miter;stroke-width:0.8;"/>
   </g>
   <g id="patch_16">
    <path d="M 67.84 32.236875 
L 333.72 32.236875 
" style="fill:none;stroke:#000000;stroke-linecap:square;stroke-linejoin:miter;stroke-width:0.8;"/>
   </g>
  </g>
 </g>
 <defs>
  <clipPath id="p5cbbb793b5">
   <rect height="275.729375" width="265.88" x="67.84" y="32.236875"/>
  </clipPath>
 </defs>
</svg>
