<?xml version="1.0" encoding="utf-8" standalone="no"?>
<!DOCTYPE svg PUBLIC "-//W3C//DTD SVG 1.1//EN"
  "http://www.w3.org/Graphics/SVG/1.1/DTD/svg11.dtd">
<!-- Created with matplotlib (http://matplotlib.org/) -->
<svg height="360pt" version="1.1" viewBox="0 0 504 360" width="504pt" xmlns="http://www.w3.org/2000/svg" xmlns:xlink="http://www.w3.org/1999/xlink">
 <defs>
  <style type="text/css">
*{stroke-linecap:butt;stroke-linejoin:round;}
  </style>
 </defs>
 <g id="figure_1">
  <g id="patch_1">
   <path d="M 0 360 
L 504 360 
L 504 0 
L 0 0 
z
" style="fill:#ffffff;"/>
  </g>
  <g id="axes_1">
   <g id="patch_2">
    <path d="M 71.53 299.22 
L 483.22 299.22 
L 483.22 38.076875 
L 71.53 38.076875 
z
" style="fill:#ffffff;"/>
   </g>
   <g id="patch_3">
    <path clip-path="url(#pa2c424eeb2)" d="M 90.243182 299.22 
L 141.865752 299.22 
L 141.865752 77.644015 
L 90.243182 77.644015 
z
" style="fill:#8080ff;stroke:#000080;stroke-linejoin:miter;"/>
   </g>
   <g id="patch_4">
    <path clip-path="url(#pa2c424eeb2)" d="M 154.771395 299.22 
L 206.393966 299.22 
L 206.393966 122.863604 
L 154.771395 122.863604 
z
" style="fill:#8080ff;stroke:#000080;stroke-linejoin:miter;"/>
   </g>
   <g id="patch_5">
    <path clip-path="url(#pa2c424eeb2)" d="M 219.299608 299.22 
L 270.922179 299.22 
L 270.922179 152.256337 
L 219.299608 152.256337 
z
" style="fill:#8080ff;stroke:#000080;stroke-linejoin:miter;"/>
   </g>
   <g id="patch_6">
    <path clip-path="url(#pa2c424eeb2)" d="M 283.827821 299.22 
L 335.450392 299.22 
L 335.450392 91.209892 
L 283.827821 91.209892 
z
" style="fill:#8080ff;stroke:#000080;stroke-linejoin:miter;"/>
   </g>
   <g id="patch_7">
    <path clip-path="url(#pa2c424eeb2)" d="M 348.356034 299.22 
L 399.978605 299.22 
L 399.978605 107.036748 
L 348.356034 107.036748 
z
" style="fill:#8080ff;stroke:#000080;stroke-linejoin:miter;"/>
   </g>
   <g id="patch_8">
    <path clip-path="url(#pa2c424eeb2)" d="M 412.884248 299.22 
L 464.506818 299.22 
L 464.506818 50.512262 
L 412.884248 50.512262 
z
" style="fill:#8080ff;stroke:#000080;stroke-linejoin:miter;"/>
   </g>
   <g id="matplotlib.axis_1">
    <g id="xtick_1">
     <g id="line2d_1">
      <defs>
       <path d="M 0 0 
L 0 3.5 
" id="m33dfeb813c" style="stroke:#000000;stroke-width:0.8;"/>
      </defs>
      <g>
       <use style="stroke:#000000;stroke-width:0.8;" x="116.054467" xlink:href="#m33dfeb813c" y="299.22"/>
      </g>
     </g>
     <g id="text_1">
      <!-- 0 -->
      <defs>
       <path d="M 5 34.703125 
Q 5 52.09375 11.140625 61.5 
Q 17.296875 70.90625 28.203125 70.90625 
Q 39.09375 70.90625 45.25 61.5 
Q 51.40625 52.09375 51.40625 34.703125 
Q 51.40625 17.296875 45.25 7.890625 
Q 39.09375 -1.5 28.203125 -1.5 
Q 17.296875 -1.5 11.140625 7.890625 
Q 5 17.296875 5 34.703125 
z
M 41.59375 34.703125 
Q 41.59375 40.40625 40.9375 45.5 
Q 40.296875 50.59375 38.75 54.390625 
Q 37.203125 58.203125 34.59375 60.453125 
Q 32 62.703125 28.203125 62.703125 
Q 24.40625 62.703125 21.796875 60.453125 
Q 19.203125 58.203125 17.640625 54.390625 
Q 16.09375 50.59375 15.4375 45.5 
Q 14.796875 40.40625 14.796875 34.703125 
Q 14.796875 29 15.4375 23.890625 
Q 16.09375 18.796875 17.640625 15 
Q 19.203125 11.203125 21.796875 8.953125 
Q 24.40625 6.703125 28.203125 6.703125 
Q 32 6.703125 34.59375 8.953125 
Q 37.203125 11.203125 38.75 15 
Q 40.296875 18.796875 40.9375 23.890625 
Q 41.59375 29 41.59375 34.703125 
z
" id="Ubuntu-30"/>
      </defs>
      <g transform="translate(111.541967 318.635)scale(0.16 -0.16)">
       <use xlink:href="#Ubuntu-30"/>
      </g>
     </g>
    </g>
    <g id="xtick_2">
     <g id="line2d_2">
      <g>
       <use style="stroke:#000000;stroke-width:0.8;" x="180.58268" xlink:href="#m33dfeb813c" y="299.22"/>
      </g>
     </g>
     <g id="text_2">
      <!-- 10 -->
      <defs>
       <path d="M 9.296875 55 
Q 15 57.203125 20.390625 60.640625 
Q 25.796875 64.09375 30.296875 69.296875 
L 36.90625 69.296875 
L 36.90625 0 
L 27.59375 0 
L 27.59375 56.40625 
Q 26.40625 55.296875 24.65625 54.09375 
Q 22.90625 52.90625 20.84375 51.796875 
Q 18.796875 50.703125 16.546875 49.703125 
Q 14.296875 48.703125 12.203125 48 
z
" id="Ubuntu-31"/>
      </defs>
      <g transform="translate(171.55768 318.635)scale(0.16 -0.16)">
       <use xlink:href="#Ubuntu-31"/>
       <use x="56.399994" xlink:href="#Ubuntu-30"/>
      </g>
     </g>
    </g>
    <g id="xtick_3">
     <g id="line2d_3">
      <g>
       <use style="stroke:#000000;stroke-width:0.8;" x="245.110893" xlink:href="#m33dfeb813c" y="299.22"/>
      </g>
     </g>
     <g id="text_3">
      <!-- 20 -->
      <defs>
       <path d="M 46.703125 51.59375 
Q 46.703125 48 45.25 44.640625 
Q 43.796875 41.296875 41.390625 38.046875 
Q 39 34.796875 36 31.640625 
Q 33 28.5 30 25.5 
Q 28.296875 23.796875 26.046875 21.5 
Q 23.796875 19.203125 21.796875 16.703125 
Q 19.796875 14.203125 18.4375 11.890625 
Q 17.09375 9.59375 17.09375 7.90625 
L 49 7.90625 
L 49 0 
L 7 0 
Q 6.90625 0.59375 6.90625 1.1875 
Q 6.90625 1.796875 6.90625 2.296875 
Q 6.90625 7 8.453125 11.046875 
Q 10 15.09375 12.5 18.6875 
Q 15 22.296875 18.09375 25.5 
Q 21.203125 28.703125 24.203125 31.703125 
Q 26.703125 34.09375 28.953125 36.4375 
Q 31.203125 38.796875 32.953125 41.140625 
Q 34.703125 43.5 35.75 46 
Q 36.796875 48.5 36.796875 51.296875 
Q 36.796875 54.296875 35.84375 56.390625 
Q 34.90625 58.5 33.296875 59.890625 
Q 31.703125 61.296875 29.546875 61.9375 
Q 27.40625 62.59375 25 62.59375 
Q 22.09375 62.59375 19.6875 61.796875 
Q 17.296875 61 15.390625 59.953125 
Q 13.5 58.90625 12.203125 57.75 
Q 10.90625 56.59375 10.203125 56 
L 5.59375 62.59375 
Q 6.5 63.59375 8.296875 65.046875 
Q 10.09375 66.5 12.59375 67.796875 
Q 15.09375 69.09375 18.1875 70 
Q 21.296875 70.90625 24.90625 70.90625 
Q 35.796875 70.90625 41.25 65.84375 
Q 46.703125 60.796875 46.703125 51.59375 
z
" id="Ubuntu-32"/>
      </defs>
      <g transform="translate(236.085893 318.635)scale(0.16 -0.16)">
       <use xlink:href="#Ubuntu-32"/>
       <use x="56.399994" xlink:href="#Ubuntu-30"/>
      </g>
     </g>
    </g>
    <g id="xtick_4">
     <g id="line2d_4">
      <g>
       <use style="stroke:#000000;stroke-width:0.8;" x="309.639107" xlink:href="#m33dfeb813c" y="299.22"/>
      </g>
     </g>
     <g id="text_4">
      <!-- 30 -->
      <defs>
       <path d="M 22.59375 6.796875 
Q 31.5 6.796875 35.34375 10.296875 
Q 39.203125 13.796875 39.203125 19.703125 
Q 39.203125 23.5 37.59375 26.09375 
Q 36 28.703125 33.390625 30.25 
Q 30.796875 31.796875 27.34375 32.4375 
Q 23.90625 33.09375 20.296875 33.09375 
L 17.90625 33.09375 
L 17.90625 40.703125 
L 21.203125 40.703125 
Q 23.703125 40.703125 26.34375 41.203125 
Q 29 41.703125 31.203125 43 
Q 33.40625 44.296875 34.796875 46.546875 
Q 36.203125 48.796875 36.203125 52.203125 
Q 36.203125 55 35.203125 57 
Q 34.203125 59 32.546875 60.296875 
Q 30.90625 61.59375 28.75 62.140625 
Q 26.59375 62.703125 24.203125 62.703125 
Q 19.40625 62.703125 16.046875 61.296875 
Q 12.703125 59.90625 10.40625 58.40625 
L 6.796875 65.5 
Q 8 66.296875 9.84375 67.25 
Q 11.703125 68.203125 14 69 
Q 16.296875 69.796875 18.9375 70.34375 
Q 21.59375 70.90625 24.5 70.90625 
Q 30 70.90625 34 69.546875 
Q 38 68.203125 40.59375 65.75 
Q 43.203125 63.296875 44.5 59.9375 
Q 45.796875 56.59375 45.796875 52.703125 
Q 45.796875 47.296875 42.6875 43.4375 
Q 39.59375 39.59375 35.203125 37.59375 
Q 37.90625 36.796875 40.40625 35.296875 
Q 42.90625 33.796875 44.75 31.5 
Q 46.59375 29.203125 47.75 26.203125 
Q 48.90625 23.203125 48.90625 19.5 
Q 48.90625 15 47.34375 11.140625 
Q 45.796875 7.296875 42.546875 4.5 
Q 39.296875 1.703125 34.390625 0.09375 
Q 29.5 -1.5 22.796875 -1.5 
Q 20.203125 -1.5 17.453125 -1.09375 
Q 14.703125 -0.703125 12.296875 -0.09375 
Q 9.90625 0.5 8.09375 1.09375 
Q 6.296875 1.703125 5.5 2.09375 
L 7.296875 10.203125 
Q 9 9.40625 12.953125 8.09375 
Q 16.90625 6.796875 22.59375 6.796875 
z
" id="Ubuntu-33"/>
      </defs>
      <g transform="translate(300.614107 318.635)scale(0.16 -0.16)">
       <use xlink:href="#Ubuntu-33"/>
       <use x="56.399994" xlink:href="#Ubuntu-30"/>
      </g>
     </g>
    </g>
    <g id="xtick_5">
     <g id="line2d_5">
      <g>
       <use style="stroke:#000000;stroke-width:0.8;" x="374.16732" xlink:href="#m33dfeb813c" y="299.22"/>
      </g>
     </g>
     <g id="text_5">
      <!-- 40 -->
      <defs>
       <path d="M 4 24 
Q 5.90625 28.40625 9.203125 34.25 
Q 12.5 40.09375 16.640625 46.296875 
Q 20.796875 52.5 25.546875 58.5 
Q 30.296875 64.5 35.09375 69.296875 
L 44 69.296875 
L 44 25.296875 
L 52.203125 25.296875 
L 52.203125 17.703125 
L 44 17.703125 
L 44 0 
L 35 0 
L 35 17.703125 
L 4 17.703125 
z
M 35 58.296875 
Q 32 55.09375 28.953125 51.140625 
Q 25.90625 47.203125 23 42.890625 
Q 20.09375 38.59375 17.546875 34.09375 
Q 15 29.59375 13 25.296875 
L 35 25.296875 
z
" id="Ubuntu-34"/>
      </defs>
      <g transform="translate(365.14232 318.635)scale(0.16 -0.16)">
       <use xlink:href="#Ubuntu-34"/>
       <use x="56.399994" xlink:href="#Ubuntu-30"/>
      </g>
     </g>
    </g>
    <g id="xtick_6">
     <g id="line2d_6">
      <g>
       <use style="stroke:#000000;stroke-width:0.8;" x="438.695533" xlink:href="#m33dfeb813c" y="299.22"/>
      </g>
     </g>
     <g id="text_6">
      <!-- 50 -->
      <defs>
       <path d="M 19.90625 42.59375 
Q 35 42 42.046875 36 
Q 49.09375 30 49.09375 19.703125 
Q 49.09375 15.09375 47.546875 11.1875 
Q 46 7.296875 42.84375 4.5 
Q 39.703125 1.703125 34.890625 0.09375 
Q 30.09375 -1.5 23.5 -1.5 
Q 20.90625 -1.5 18.203125 -1.09375 
Q 15.5 -0.703125 13.203125 -0.09375 
Q 10.90625 0.5 9.09375 1.09375 
Q 7.296875 1.703125 6.5 2.09375 
L 8.296875 10.203125 
Q 10 9.40625 13.84375 8.09375 
Q 17.703125 6.796875 23.296875 6.796875 
Q 27.796875 6.796875 30.84375 7.796875 
Q 33.90625 8.796875 35.796875 10.5 
Q 37.703125 12.203125 38.546875 14.453125 
Q 39.40625 16.703125 39.40625 19.203125 
Q 39.40625 23 38.09375 25.953125 
Q 36.796875 28.90625 33.5 30.90625 
Q 30.203125 32.90625 24.703125 33.953125 
Q 19.203125 35 10.796875 35 
Q 11.40625 39.90625 11.75 44.203125 
Q 12.09375 48.5 12.390625 52.59375 
Q 12.703125 56.703125 12.890625 60.75 
Q 13.09375 64.796875 13.296875 69.296875 
L 46.703125 69.296875 
L 46.703125 61.40625 
L 21.40625 61.40625 
Q 21.296875 59.90625 21.09375 57.34375 
Q 20.90625 54.796875 20.703125 52.046875 
Q 20.5 49.296875 20.296875 46.6875 
Q 20.09375 44.09375 19.90625 42.59375 
z
" id="Ubuntu-35"/>
      </defs>
      <g transform="translate(429.670533 318.635)scale(0.16 -0.16)">
       <use xlink:href="#Ubuntu-35"/>
       <use x="56.399994" xlink:href="#Ubuntu-30"/>
      </g>
     </g>
    </g>
    <g id="text_7">
     <!-- Time [min] -->
     <defs>
      <path d="M 54.90625 69.296875 
L 54.90625 60.90625 
L 33.09375 60.90625 
L 33.09375 0 
L 23.40625 0 
L 23.40625 60.90625 
L 1.59375 60.90625 
L 1.59375 69.296875 
z
" id="Ubuntu-54"/>
      <path d="M 17.296875 0 
L 8 0 
L 8 52 
L 17.296875 52 
z
M 12.59375 61.40625 
Q 10.09375 61.40625 8.34375 63.046875 
Q 6.59375 64.703125 6.59375 67.5 
Q 6.59375 70.296875 8.34375 71.9375 
Q 10.09375 73.59375 12.59375 73.59375 
Q 15.09375 73.59375 16.84375 71.9375 
Q 18.59375 70.296875 18.59375 67.5 
Q 18.59375 64.703125 16.84375 63.046875 
Q 15.09375 61.40625 12.59375 61.40625 
z
" id="Ubuntu-69"/>
      <path d="M 8 50.5 
Q 11.203125 51.296875 16.453125 52.1875 
Q 21.703125 53.09375 28.59375 53.09375 
Q 33.59375 53.09375 37 51.75 
Q 40.40625 50.40625 42.703125 47.796875 
Q 43.40625 48.296875 44.90625 49.1875 
Q 46.40625 50.09375 48.59375 50.9375 
Q 50.796875 51.796875 53.5 52.4375 
Q 56.203125 53.09375 59.296875 53.09375 
Q 65.296875 53.09375 69.09375 51.34375 
Q 72.90625 49.59375 75.046875 46.390625 
Q 77.203125 43.203125 77.953125 38.796875 
Q 78.703125 34.40625 78.703125 29.203125 
L 78.703125 0 
L 69.40625 0 
L 69.40625 27.203125 
Q 69.40625 31.796875 68.953125 35.09375 
Q 68.5 38.40625 67.25 40.59375 
Q 66 42.796875 63.84375 43.84375 
Q 61.703125 44.90625 58.296875 44.90625 
Q 53.59375 44.90625 50.546875 43.65625 
Q 47.5 42.40625 46.40625 41.40625 
Q 47.203125 38.796875 47.59375 35.6875 
Q 48 32.59375 48 29.203125 
L 48 0 
L 38.703125 0 
L 38.703125 27.203125 
Q 38.703125 31.796875 38.203125 35.09375 
Q 37.703125 38.40625 36.453125 40.59375 
Q 35.203125 42.796875 33.046875 43.84375 
Q 30.90625 44.90625 27.59375 44.90625 
Q 26.203125 44.90625 24.59375 44.796875 
Q 23 44.703125 21.546875 44.546875 
Q 20.09375 44.40625 18.890625 44.203125 
Q 17.703125 44 17.296875 43.90625 
L 17.296875 0 
L 8 0 
z
" id="Ubuntu-6d"/>
      <path d="M 5.09375 25.90625 
Q 5.09375 32.796875 7.09375 37.9375 
Q 9.09375 43.09375 12.390625 46.5 
Q 15.703125 49.90625 20 51.59375 
Q 24.296875 53.296875 28.796875 53.296875 
Q 39.296875 53.296875 44.890625 46.75 
Q 50.5 40.203125 50.5 26.796875 
Q 50.5 26.203125 50.5 25.25 
Q 50.5 24.296875 50.40625 23.5 
L 14.796875 23.5 
Q 15.40625 15.40625 19.5 11.203125 
Q 23.59375 7 32.296875 7 
Q 37.203125 7 40.546875 7.84375 
Q 43.90625 8.703125 45.59375 9.5 
L 46.90625 1.703125 
Q 45.203125 0.796875 40.953125 -0.203125 
Q 36.703125 -1.203125 31.296875 -1.203125 
Q 24.5 -1.203125 19.546875 0.84375 
Q 14.59375 2.90625 11.390625 6.5 
Q 8.203125 10.09375 6.640625 15.046875 
Q 5.09375 20 5.09375 25.90625 
z
M 40.796875 31 
Q 40.90625 37.296875 37.65625 41.34375 
Q 34.40625 45.40625 28.703125 45.40625 
Q 25.5 45.40625 23.046875 44.15625 
Q 20.59375 42.90625 18.890625 40.90625 
Q 17.203125 38.90625 16.25 36.296875 
Q 15.296875 33.703125 15 31 
z
" id="Ubuntu-65"/>
      <path id="Ubuntu-20"/>
      <path d="M 9.59375 78.296875 
L 32.09375 78.296875 
L 32.09375 71 
L 18.296875 71 
L 18.296875 -11.203125 
L 32.09375 -11.203125 
L 32.09375 -18.5 
L 9.59375 -18.5 
z
" id="Ubuntu-5b"/>
      <path d="M 8 50.5 
Q 11.203125 51.296875 16.5 52.1875 
Q 21.796875 53.09375 28.703125 53.09375 
Q 34.90625 53.09375 39 51.34375 
Q 43.09375 49.59375 45.546875 46.4375 
Q 48 43.296875 49 38.890625 
Q 50 34.5 50 29.203125 
L 50 0 
L 40.703125 0 
L 40.703125 27.203125 
Q 40.703125 32 40.046875 35.390625 
Q 39.40625 38.796875 37.90625 40.890625 
Q 36.40625 43 33.90625 43.953125 
Q 31.40625 44.90625 27.703125 44.90625 
Q 26.203125 44.90625 24.59375 44.796875 
Q 23 44.703125 21.546875 44.546875 
Q 20.09375 44.40625 18.9375 44.203125 
Q 17.796875 44 17.296875 43.90625 
L 17.296875 0 
L 8 0 
z
" id="Ubuntu-6e"/>
      <path d="M 23.296875 -18.5 
L 0.796875 -18.5 
L 0.796875 -11.203125 
L 14.59375 -11.203125 
L 14.59375 71 
L 0.796875 71 
L 0.796875 78.296875 
L 23.296875 78.296875 
z
" id="Ubuntu-5d"/>
     </defs>
     <g transform="translate(238.85875 338.1225)scale(0.16 -0.16)">
      <use xlink:href="#Ubuntu-54"/>
      <use x="56.499985" xlink:href="#Ubuntu-69"/>
      <use x="81.799973" xlink:href="#Ubuntu-6d"/>
      <use x="167.899963" xlink:href="#Ubuntu-65"/>
      <use x="223.799957" xlink:href="#Ubuntu-20"/>
      <use x="246.899948" xlink:href="#Ubuntu-5b"/>
      <use x="279.799942" xlink:href="#Ubuntu-6d"/>
      <use x="365.899933" xlink:href="#Ubuntu-69"/>
      <use x="391.199921" xlink:href="#Ubuntu-6e"/>
      <use x="448.55304" xlink:href="#Ubuntu-5d"/>
     </g>
    </g>
   </g>
   <g id="matplotlib.axis_2">
    <g id="ytick_1">
     <g id="line2d_7">
      <defs>
       <path d="M 0 0 
L -3.5 0 
" id="m2a03fd794e" style="stroke:#000000;stroke-width:0.8;"/>
      </defs>
      <g>
       <use style="stroke:#000000;stroke-width:0.8;" x="71.53" xlink:href="#m2a03fd794e" y="299.22"/>
      </g>
     </g>
     <g id="text_8">
      <!-- 0 -->
      <g transform="translate(55.505 305.4275)scale(0.16 -0.16)">
       <use xlink:href="#Ubuntu-30"/>
      </g>
     </g>
    </g>
    <g id="ytick_2">
     <g id="line2d_8">
      <g>
       <use style="stroke:#000000;stroke-width:0.8;" x="71.53" xlink:href="#m2a03fd794e" y="254.000411"/>
      </g>
     </g>
     <g id="text_9">
      <!-- 20 -->
      <g transform="translate(46.48 260.207911)scale(0.16 -0.16)">
       <use xlink:href="#Ubuntu-32"/>
       <use x="56.399994" xlink:href="#Ubuntu-30"/>
      </g>
     </g>
    </g>
    <g id="ytick_3">
     <g id="line2d_9">
      <g>
       <use style="stroke:#000000;stroke-width:0.8;" x="71.53" xlink:href="#m2a03fd794e" y="208.780823"/>
      </g>
     </g>
     <g id="text_10">
      <!-- 40 -->
      <g transform="translate(46.48 214.988323)scale(0.16 -0.16)">
       <use xlink:href="#Ubuntu-34"/>
       <use x="56.399994" xlink:href="#Ubuntu-30"/>
      </g>
     </g>
    </g>
    <g id="ytick_4">
     <g id="line2d_10">
      <g>
       <use style="stroke:#000000;stroke-width:0.8;" x="71.53" xlink:href="#m2a03fd794e" y="163.561234"/>
      </g>
     </g>
     <g id="text_11">
      <!-- 60 -->
      <defs>
       <path d="M 6.296875 27.796875 
Q 6.296875 37.90625 9.09375 45.65625 
Q 11.90625 53.40625 17.046875 58.703125 
Q 22.203125 64 29.546875 66.75 
Q 36.90625 69.5 46.09375 69.59375 
L 46.796875 61.796875 
Q 40.90625 61.703125 36.046875 60.5 
Q 31.203125 59.296875 27.390625 56.6875 
Q 23.59375 54.09375 21 49.9375 
Q 18.40625 45.796875 17.09375 39.703125 
Q 19.703125 40.90625 22.953125 41.703125 
Q 26.203125 42.5 29.703125 42.5 
Q 35.59375 42.5 39.6875 40.703125 
Q 43.796875 38.90625 46.390625 35.953125 
Q 49 33 50.140625 29.140625 
Q 51.296875 25.296875 51.296875 21.09375 
Q 51.296875 17.296875 50 13.296875 
Q 48.703125 9.296875 46.046875 6 
Q 43.40625 2.703125 39.296875 0.59375 
Q 35.203125 -1.5 29.59375 -1.5 
Q 18.203125 -1.5 12.25 6.296875 
Q 6.296875 14.09375 6.296875 27.796875 
z
M 28.703125 34.90625 
Q 25.203125 34.90625 22.203125 34.25 
Q 19.203125 33.59375 16.203125 32.296875 
Q 16.09375 31.203125 16.046875 30.046875 
Q 16 28.90625 16 27.796875 
Q 16 23.40625 16.59375 19.5 
Q 17.203125 15.59375 18.75 12.640625 
Q 20.296875 9.703125 22.890625 7.953125 
Q 25.5 6.203125 29.5 6.203125 
Q 32.796875 6.203125 35.09375 7.59375 
Q 37.40625 9 38.90625 11.203125 
Q 40.40625 13.40625 41.046875 15.953125 
Q 41.703125 18.5 41.703125 20.90625 
Q 41.703125 27.703125 38.453125 31.296875 
Q 35.203125 34.90625 28.703125 34.90625 
z
" id="Ubuntu-36"/>
      </defs>
      <g transform="translate(46.48 169.768734)scale(0.16 -0.16)">
       <use xlink:href="#Ubuntu-36"/>
       <use x="56.399994" xlink:href="#Ubuntu-30"/>
      </g>
     </g>
    </g>
    <g id="ytick_5">
     <g id="line2d_11">
      <g>
       <use style="stroke:#000000;stroke-width:0.8;" x="71.53" xlink:href="#m2a03fd794e" y="118.341645"/>
      </g>
     </g>
     <g id="text_12">
      <!-- 80 -->
      <defs>
       <path d="M 50.90625 18 
Q 50.90625 13.796875 49.453125 10.25 
Q 48 6.703125 45.140625 4.046875 
Q 42.296875 1.40625 38 -0.046875 
Q 33.703125 -1.5 28.09375 -1.5 
Q 21.59375 -1.5 17.25 0.34375 
Q 12.90625 2.203125 10.296875 5 
Q 7.703125 7.796875 6.59375 11.140625 
Q 5.5 14.5 5.5 17.5 
Q 5.5 20.40625 6.453125 23.046875 
Q 7.40625 25.703125 8.953125 28 
Q 10.5 30.296875 12.546875 32.140625 
Q 14.59375 34 16.90625 35.40625 
Q 7.09375 41 7.09375 51.90625 
Q 7.09375 55.703125 8.59375 59.140625 
Q 10.09375 62.59375 12.84375 65.1875 
Q 15.59375 67.796875 19.5 69.34375 
Q 23.40625 70.90625 28.203125 70.90625 
Q 33.796875 70.90625 37.796875 69.203125 
Q 41.796875 67.5 44.34375 64.84375 
Q 46.90625 62.203125 48.046875 59 
Q 49.203125 55.796875 49.203125 52.796875 
Q 49.203125 49.90625 48.34375 47.34375 
Q 47.5 44.796875 46.046875 42.59375 
Q 44.59375 40.40625 42.75 38.703125 
Q 40.90625 37 38.90625 35.703125 
Q 50.703125 30.09375 50.90625 18 
z
M 14.90625 17.40625 
Q 14.90625 15.59375 15.546875 13.640625 
Q 16.203125 11.703125 17.796875 10.046875 
Q 19.40625 8.40625 21.90625 7.296875 
Q 24.40625 6.203125 28.203125 6.203125 
Q 31.59375 6.203125 34.140625 7.203125 
Q 36.703125 8.203125 38.296875 9.75 
Q 39.90625 11.296875 40.703125 13.296875 
Q 41.5 15.296875 41.5 17.40625 
Q 41.5 20.59375 40.296875 23 
Q 39.09375 25.40625 36.84375 27.203125 
Q 34.59375 29 31.4375 30.25 
Q 28.296875 31.5 24.296875 32.40625 
Q 19.796875 29.90625 17.34375 26.203125 
Q 14.90625 22.5 14.90625 17.40625 
z
M 39.90625 52.90625 
Q 39.90625 54.40625 39.25 56.203125 
Q 38.59375 58 37.1875 59.546875 
Q 35.796875 61.09375 33.59375 62.140625 
Q 31.40625 63.203125 28.203125 63.203125 
Q 25 63.203125 22.75 62.203125 
Q 20.5 61.203125 19.09375 59.640625 
Q 17.703125 58.09375 17.046875 56.25 
Q 16.40625 54.40625 16.40625 52.59375 
Q 16.40625 50.40625 17.203125 48.203125 
Q 18 46 19.703125 44.09375 
Q 21.40625 42.203125 24.15625 40.703125 
Q 26.90625 39.203125 30.703125 38.296875 
Q 34.90625 40.796875 37.40625 44.140625 
Q 39.90625 47.5 39.90625 52.90625 
z
" id="Ubuntu-38"/>
      </defs>
      <g transform="translate(46.48 124.549145)scale(0.16 -0.16)">
       <use xlink:href="#Ubuntu-38"/>
       <use x="56.399994" xlink:href="#Ubuntu-30"/>
      </g>
     </g>
    </g>
    <g id="ytick_6">
     <g id="line2d_12">
      <g>
       <use style="stroke:#000000;stroke-width:0.8;" x="71.53" xlink:href="#m2a03fd794e" y="73.122056"/>
      </g>
     </g>
     <g id="text_13">
      <!-- 100 -->
      <g transform="translate(37.455 79.329556)scale(0.16 -0.16)">
       <use xlink:href="#Ubuntu-31"/>
       <use x="56.399994" xlink:href="#Ubuntu-30"/>
       <use x="112.799988" xlink:href="#Ubuntu-30"/>
      </g>
     </g>
    </g>
    <g id="text_14">
     <!-- Boringness [%] -->
     <defs>
      <path d="M 27.296875 -0.59375 
Q 25.203125 -0.59375 22.75 -0.5 
Q 20.296875 -0.40625 17.84375 -0.203125 
Q 15.40625 0 13 0.296875 
Q 10.59375 0.59375 8.59375 1.09375 
L 8.59375 68.296875 
Q 10.59375 68.796875 13 69.09375 
Q 15.40625 69.40625 17.84375 69.59375 
Q 20.296875 69.796875 22.6875 69.890625 
Q 25.09375 70 27.203125 70 
Q 33.203125 70 38.453125 69.09375 
Q 43.703125 68.203125 47.546875 66.046875 
Q 51.40625 63.90625 53.59375 60.40625 
Q 55.796875 56.90625 55.796875 51.796875 
Q 55.796875 46.09375 53.09375 42.4375 
Q 50.40625 38.796875 45.90625 37 
Q 52 35.203125 55.59375 31.296875 
Q 59.203125 27.40625 59.203125 20.296875 
Q 59.203125 9.90625 51.546875 4.65625 
Q 43.90625 -0.59375 27.296875 -0.59375 
z
M 18.203125 32.296875 
L 18.203125 7.90625 
Q 19.296875 7.796875 20.796875 7.703125 
Q 22.09375 7.59375 23.84375 7.546875 
Q 25.59375 7.5 27.90625 7.5 
Q 32.203125 7.5 36.046875 8.046875 
Q 39.90625 8.59375 42.796875 10 
Q 45.703125 11.40625 47.453125 13.90625 
Q 49.203125 16.40625 49.203125 20.203125 
Q 49.203125 23.59375 47.890625 25.9375 
Q 46.59375 28.296875 44.140625 29.6875 
Q 41.703125 31.09375 38.296875 31.6875 
Q 34.90625 32.296875 30.703125 32.296875 
z
M 18.203125 40.09375 
L 28.40625 40.09375 
Q 32 40.09375 35.203125 40.59375 
Q 38.40625 41.09375 40.75 42.390625 
Q 43.09375 43.703125 44.4375 45.796875 
Q 45.796875 47.90625 45.796875 51.09375 
Q 45.796875 54.09375 44.390625 56.140625 
Q 43 58.203125 40.546875 59.453125 
Q 38.09375 60.703125 34.796875 61.296875 
Q 31.5 61.90625 27.796875 61.90625 
Q 24.09375 61.90625 22 61.796875 
Q 19.90625 61.703125 18.203125 61.5 
z
" id="Ubuntu-42"/>
      <path d="M 53.90625 26 
Q 53.90625 19.796875 52.09375 14.796875 
Q 50.296875 9.796875 47.046875 6.1875 
Q 43.796875 2.59375 39.296875 0.640625 
Q 34.796875 -1.296875 29.5 -1.296875 
Q 24.203125 -1.296875 19.703125 0.640625 
Q 15.203125 2.59375 11.953125 6.1875 
Q 8.703125 9.796875 6.890625 14.796875 
Q 5.09375 19.796875 5.09375 26 
Q 5.09375 32.09375 6.890625 37.140625 
Q 8.703125 42.203125 11.953125 45.796875 
Q 15.203125 49.40625 19.703125 51.34375 
Q 24.203125 53.296875 29.5 53.296875 
Q 34.796875 53.296875 39.296875 51.34375 
Q 43.796875 49.40625 47.046875 45.796875 
Q 50.296875 42.203125 52.09375 37.140625 
Q 53.90625 32.09375 53.90625 26 
z
M 44.203125 26 
Q 44.203125 34.796875 40.25 39.9375 
Q 36.296875 45.09375 29.5 45.09375 
Q 22.703125 45.09375 18.75 39.9375 
Q 14.796875 34.796875 14.796875 26 
Q 14.796875 17.203125 18.75 12.046875 
Q 22.703125 6.90625 29.5 6.90625 
Q 36.296875 6.90625 40.25 12.046875 
Q 44.203125 17.203125 44.203125 26 
z
" id="Ubuntu-6f"/>
      <path d="M 27.203125 53.09375 
Q 28.40625 53.09375 29.953125 52.9375 
Q 31.5 52.796875 33 52.546875 
Q 34.5 52.296875 35.75 52.046875 
Q 37 51.796875 37.59375 51.59375 
L 36 43.5 
Q 34.90625 43.90625 32.34375 44.453125 
Q 29.796875 45 25.796875 45 
Q 23.203125 45 20.640625 44.453125 
Q 18.09375 43.90625 17.296875 43.703125 
L 17.296875 0 
L 8 0 
L 8 49.796875 
Q 11.296875 51 16.1875 52.046875 
Q 21.09375 53.09375 27.203125 53.09375 
z
" id="Ubuntu-72"/>
      <path d="M 40.59375 5.203125 
Q 39.40625 4.40625 35.953125 3.15625 
Q 32.5 1.90625 27.90625 1.90625 
Q 23.203125 1.90625 19.046875 3.40625 
Q 14.90625 4.90625 11.796875 8.046875 
Q 8.703125 11.203125 6.890625 15.890625 
Q 5.09375 20.59375 5.09375 27.09375 
Q 5.09375 32.796875 6.796875 37.546875 
Q 8.5 42.296875 11.75 45.75 
Q 15 49.203125 19.703125 51.140625 
Q 24.40625 53.09375 30.296875 53.09375 
Q 36.796875 53.09375 41.640625 52.140625 
Q 46.5 51.203125 49.796875 50.40625 
L 49.796875 4 
Q 49.796875 -8 43.59375 -13.390625 
Q 37.40625 -18.796875 24.796875 -18.796875 
Q 19.90625 -18.796875 15.546875 -18 
Q 11.203125 -17.203125 8 -16.09375 
L 9.703125 -8 
Q 12.5 -9.09375 16.546875 -9.9375 
Q 20.59375 -10.796875 25 -10.796875 
Q 33.296875 -10.796875 36.9375 -7.5 
Q 40.59375 -4.203125 40.59375 3 
z
M 40.5 43.796875 
Q 39.09375 44.203125 36.75 44.546875 
Q 34.40625 44.90625 30.40625 44.90625 
Q 22.90625 44.90625 18.84375 40 
Q 14.796875 35.09375 14.796875 27 
Q 14.796875 22.5 15.9375 19.296875 
Q 17.09375 16.09375 19.046875 14 
Q 21 11.90625 23.546875 10.90625 
Q 26.09375 9.90625 28.796875 9.90625 
Q 32.5 9.90625 35.59375 10.953125 
Q 38.703125 12 40.5 13.40625 
z
" id="Ubuntu-67"/>
      <path d="M 20.09375 6.703125 
Q 25.796875 6.703125 28.546875 8.203125 
Q 31.296875 9.703125 31.296875 13 
Q 31.296875 16.40625 28.59375 18.40625 
Q 25.90625 20.40625 19.703125 22.90625 
Q 16.703125 24.09375 13.953125 25.34375 
Q 11.203125 26.59375 9.203125 28.296875 
Q 7.203125 30 6 32.390625 
Q 4.796875 34.796875 4.796875 38.296875 
Q 4.796875 45.203125 9.890625 49.25 
Q 15 53.296875 23.796875 53.296875 
Q 26 53.296875 28.203125 53.046875 
Q 30.40625 52.796875 32.296875 52.4375 
Q 34.203125 52.09375 35.640625 51.6875 
Q 37.09375 51.296875 37.90625 51 
L 36.203125 43 
Q 34.703125 43.796875 31.5 44.640625 
Q 28.296875 45.5 23.796875 45.5 
Q 19.90625 45.5 17 43.953125 
Q 14.09375 42.40625 14.09375 39.09375 
Q 14.09375 37.40625 14.75 36.09375 
Q 15.40625 34.796875 16.75 33.75 
Q 18.09375 32.703125 20.09375 31.796875 
Q 22.09375 30.90625 24.90625 29.90625 
Q 28.59375 28.5 31.5 27.140625 
Q 34.40625 25.796875 36.453125 24 
Q 38.5 22.203125 39.59375 19.640625 
Q 40.703125 17.09375 40.703125 13.40625 
Q 40.703125 6.203125 35.34375 2.5 
Q 30 -1.203125 20.09375 -1.203125 
Q 13.203125 -1.203125 9.296875 -0.046875 
Q 5.40625 1.09375 4 1.703125 
L 5.703125 9.703125 
Q 7.296875 9.09375 10.796875 7.890625 
Q 14.296875 6.703125 20.09375 6.703125 
z
" id="Ubuntu-73"/>
      <path d="M 5 52.40625 
Q 5 56.90625 6.203125 60.296875 
Q 7.40625 63.703125 9.546875 66.046875 
Q 11.703125 68.40625 14.59375 69.59375 
Q 17.5 70.796875 20.90625 70.796875 
Q 24.296875 70.796875 27.1875 69.59375 
Q 30.09375 68.40625 32.25 66.046875 
Q 34.40625 63.703125 35.59375 60.296875 
Q 36.796875 56.90625 36.796875 52.40625 
Q 36.796875 47.90625 35.59375 44.5 
Q 34.40625 41.09375 32.25 38.75 
Q 30.09375 36.40625 27.1875 35.203125 
Q 24.296875 34 20.90625 34 
Q 17.5 34 14.59375 35.203125 
Q 11.703125 36.40625 9.546875 38.75 
Q 7.40625 41.09375 6.203125 44.5 
Q 5 47.90625 5 52.40625 
z
M 29 52.40625 
Q 29 57.796875 26.890625 60.84375 
Q 24.796875 63.90625 20.90625 63.90625 
Q 17 63.90625 14.890625 60.84375 
Q 12.796875 57.796875 12.796875 52.40625 
Q 12.796875 47 14.890625 43.953125 
Q 17 40.90625 20.90625 40.90625 
Q 24.796875 40.90625 26.890625 43.953125 
Q 29 47 29 52.40625 
z
M 49 16.90625 
Q 49 21.40625 50.203125 24.796875 
Q 51.40625 28.203125 53.546875 30.546875 
Q 55.703125 32.90625 58.59375 34.09375 
Q 61.5 35.296875 64.90625 35.296875 
Q 68.296875 35.296875 71.1875 34.09375 
Q 74.09375 32.90625 76.25 30.546875 
Q 78.40625 28.203125 79.59375 24.796875 
Q 80.796875 21.40625 80.796875 16.90625 
Q 80.796875 12.40625 79.59375 9 
Q 78.40625 5.59375 76.25 3.25 
Q 74.09375 0.90625 71.1875 -0.296875 
Q 68.296875 -1.5 64.90625 -1.5 
Q 61.5 -1.5 58.59375 -0.296875 
Q 55.703125 0.90625 53.546875 3.25 
Q 51.40625 5.59375 50.203125 9 
Q 49 12.40625 49 16.90625 
z
M 73 16.90625 
Q 73 22.296875 70.890625 25.34375 
Q 68.796875 28.40625 64.90625 28.40625 
Q 61 28.40625 58.890625 25.34375 
Q 56.796875 22.296875 56.796875 16.90625 
Q 56.796875 11.5 58.890625 8.453125 
Q 61 5.40625 64.90625 5.40625 
Q 68.796875 5.40625 70.890625 8.453125 
Q 73 11.5 73 16.90625 
z
M 67 69.296875 
L 27.90625 0 
L 18.796875 0 
L 57.90625 69.296875 
z
" id="Ubuntu-25"/>
     </defs>
     <g transform="translate(30.4475 223.015938)rotate(-90)scale(0.16 -0.16)">
      <use xlink:href="#Ubuntu-42"/>
      <use x="64.299988" xlink:href="#Ubuntu-6f"/>
      <use x="123.299973" xlink:href="#Ubuntu-72"/>
      <use x="161.899963" xlink:href="#Ubuntu-69"/>
      <use x="187.199951" xlink:href="#Ubuntu-6e"/>
      <use x="244.599945" xlink:href="#Ubuntu-67"/>
      <use x="302.399933" xlink:href="#Ubuntu-6e"/>
      <use x="359.799927" xlink:href="#Ubuntu-65"/>
      <use x="415.699921" xlink:href="#Ubuntu-73"/>
      <use x="460.299911" xlink:href="#Ubuntu-73"/>
      <use x="504.899902" xlink:href="#Ubuntu-20"/>
      <use x="527.999893" xlink:href="#Ubuntu-5b"/>
      <use x="560.899887" xlink:href="#Ubuntu-25"/>
      <use x="646.699875" xlink:href="#Ubuntu-5d"/>
     </g>
    </g>
   </g>
   <g id="patch_9">
    <path d="M 71.53 299.22 
L 71.53 38.076875 
" style="fill:none;stroke:#000000;stroke-linecap:square;stroke-linejoin:miter;stroke-width:0.8;"/>
   </g>
   <g id="patch_10">
    <path d="M 483.22 299.22 
L 483.22 38.076875 
" style="fill:none;stroke:#000000;stroke-linecap:square;stroke-linejoin:miter;stroke-width:0.8;"/>
   </g>
   <g id="patch_11">
    <path d="M 71.53 299.22 
L 483.22 299.22 
" style="fill:none;stroke:#000000;stroke-linecap:square;stroke-linejoin:miter;stroke-width:0.8;"/>
   </g>
   <g id="patch_12">
    <path d="M 71.53 38.076875 
L 483.22 38.076875 
" style="fill:none;stroke:#000000;stroke-linecap:square;stroke-linejoin:miter;stroke-width:0.8;"/>
   </g>
   <g id="text_15">
    <!-- How boring is this talk -->
    <defs>
     <path d="M 52.203125 69.296875 
L 61.90625 69.296875 
L 61.90625 0 
L 52.203125 0 
L 52.203125 32 
L 18.296875 32 
L 18.296875 0 
L 8.59375 0 
L 8.59375 69.296875 
L 18.296875 69.296875 
L 18.296875 40.40625 
L 52.203125 40.40625 
z
" id="Ubuntu-48"/>
     <path d="M 50.5 0 
Q 47.703125 7.203125 44.546875 16.453125 
Q 41.40625 25.703125 38.796875 35.703125 
Q 36.203125 25.703125 33.09375 16.453125 
Q 30 7.203125 27.203125 0 
L 19.09375 0 
Q 14.5 10.296875 10.09375 23.5 
Q 5.703125 36.703125 1.796875 52 
L 11.796875 52 
Q 12.796875 47.296875 14.1875 41.796875 
Q 15.59375 36.296875 17.140625 30.796875 
Q 18.703125 25.296875 20.390625 20.1875 
Q 22.09375 15.09375 23.59375 11.296875 
Q 25.296875 16 26.9375 21.25 
Q 28.59375 26.5 30.09375 31.84375 
Q 31.59375 37.203125 32.9375 42.34375 
Q 34.296875 47.5 35.296875 52 
L 43 52 
Q 43.90625 47.5 45.203125 42.34375 
Q 46.5 37.203125 48 31.84375 
Q 49.5 26.5 51.140625 21.25 
Q 52.796875 16 54.5 11.296875 
Q 56 15.09375 57.640625 20.1875 
Q 59.296875 25.296875 60.890625 30.796875 
Q 62.5 36.296875 63.890625 41.796875 
Q 65.296875 47.296875 66.296875 52 
L 75.90625 52 
Q 72 36.703125 67.59375 23.5 
Q 63.203125 10.296875 58.59375 0 
z
" id="Ubuntu-77"/>
     <path d="M 17.296875 49.703125 
Q 19 50.796875 22.453125 52 
Q 25.90625 53.203125 30.40625 53.203125 
Q 36 53.203125 40.34375 51.203125 
Q 44.703125 49.203125 47.703125 45.59375 
Q 50.703125 42 52.25 37 
Q 53.796875 32 53.796875 26 
Q 53.796875 19.703125 51.9375 14.640625 
Q 50.09375 9.59375 46.6875 6.09375 
Q 43.296875 2.59375 38.5 0.6875 
Q 33.703125 -1.203125 27.703125 -1.203125 
Q 21.203125 -1.203125 16.203125 -0.296875 
Q 11.203125 0.59375 8 1.5 
L 8 76 
L 17.296875 77.59375 
z
M 17.296875 8.09375 
Q 18.703125 7.703125 21.25 7.34375 
Q 23.796875 7 27.59375 7 
Q 35.09375 7 39.59375 11.953125 
Q 44.09375 16.90625 44.09375 26 
Q 44.09375 30 43.296875 33.5 
Q 42.5 37 40.703125 39.546875 
Q 38.90625 42.09375 36.046875 43.546875 
Q 33.203125 45 29.203125 45 
Q 25.40625 45 22.203125 43.703125 
Q 19 42.40625 17.296875 41 
z
" id="Ubuntu-62"/>
     <path d="M 16.703125 52 
L 36.40625 52 
L 36.40625 44.203125 
L 16.703125 44.203125 
L 16.703125 20.203125 
Q 16.703125 16.296875 17.296875 13.75 
Q 17.90625 11.203125 19.09375 9.75 
Q 20.296875 8.296875 22.09375 7.6875 
Q 23.90625 7.09375 26.296875 7.09375 
Q 30.5 7.09375 33.046875 8.046875 
Q 35.59375 9 36.59375 9.40625 
L 38.40625 1.703125 
Q 37 1 33.5 -0.046875 
Q 30 -1.09375 25.5 -1.09375 
Q 20.203125 -1.09375 16.75 0.25 
Q 13.296875 1.59375 11.1875 4.296875 
Q 9.09375 7 8.25 10.953125 
Q 7.40625 14.90625 7.40625 20.09375 
L 7.40625 66.5 
L 16.703125 68.09375 
z
" id="Ubuntu-74"/>
     <path d="M 8 0 
L 8 76 
L 17.296875 77.59375 
L 17.296875 51 
Q 19.90625 52 22.84375 52.546875 
Q 25.796875 53.09375 28.703125 53.09375 
Q 34.90625 53.09375 39 51.34375 
Q 43.09375 49.59375 45.546875 46.4375 
Q 48 43.296875 49 38.890625 
Q 50 34.5 50 29.203125 
L 50 0 
L 40.703125 0 
L 40.703125 27.203125 
Q 40.703125 32 40.046875 35.390625 
Q 39.40625 38.796875 37.90625 40.890625 
Q 36.40625 43 33.90625 43.953125 
Q 31.40625 44.90625 27.703125 44.90625 
Q 26.203125 44.90625 24.59375 44.703125 
Q 23 44.5 21.546875 44.25 
Q 20.09375 44 18.9375 43.703125 
Q 17.796875 43.40625 17.296875 43.203125 
L 17.296875 0 
z
" id="Ubuntu-68"/>
     <path d="M 25.59375 6.703125 
Q 28.90625 6.703125 31.453125 6.84375 
Q 34 7 35.703125 7.40625 
L 35.703125 22.90625 
Q 34.703125 23.40625 32.453125 23.75 
Q 30.203125 24.09375 27 24.09375 
Q 24.90625 24.09375 22.546875 23.796875 
Q 20.203125 23.5 18.25 22.546875 
Q 16.296875 21.59375 15 19.9375 
Q 13.703125 18.296875 13.703125 15.59375 
Q 13.703125 10.59375 16.890625 8.640625 
Q 20.09375 6.703125 25.59375 6.703125 
z
M 24.796875 53.296875 
Q 30.40625 53.296875 34.25 51.84375 
Q 38.09375 50.40625 40.4375 47.75 
Q 42.796875 45.09375 43.796875 41.4375 
Q 44.796875 37.796875 44.796875 33.40625 
L 44.796875 0.90625 
Q 43.59375 0.703125 41.4375 0.34375 
Q 39.296875 0 36.59375 -0.296875 
Q 33.90625 -0.59375 30.75 -0.84375 
Q 27.59375 -1.09375 24.5 -1.09375 
Q 20.09375 -1.09375 16.390625 -0.1875 
Q 12.703125 0.703125 10 2.640625 
Q 7.296875 4.59375 5.796875 7.796875 
Q 4.296875 11 4.296875 15.5 
Q 4.296875 19.796875 6.046875 22.890625 
Q 7.796875 26 10.796875 27.890625 
Q 13.796875 29.796875 17.796875 30.6875 
Q 21.796875 31.59375 26.203125 31.59375 
Q 27.59375 31.59375 29.09375 31.4375 
Q 30.59375 31.296875 31.9375 31.046875 
Q 33.296875 30.796875 34.296875 30.59375 
Q 35.296875 30.40625 35.703125 30.296875 
L 35.703125 32.90625 
Q 35.703125 35.203125 35.203125 37.453125 
Q 34.703125 39.703125 33.390625 41.453125 
Q 32.09375 43.203125 29.84375 44.25 
Q 27.59375 45.296875 24 45.296875 
Q 19.40625 45.296875 15.953125 44.640625 
Q 12.5 44 10.796875 43.296875 
L 9.703125 51 
Q 11.5 51.796875 15.703125 52.546875 
Q 19.90625 53.296875 24.796875 53.296875 
z
" id="Ubuntu-61"/>
     <path d="M 23.59375 -1 
Q 15 -0.796875 11.390625 2.703125 
Q 7.796875 6.203125 7.796875 13.59375 
L 7.796875 76 
L 17.09375 77.59375 
L 17.09375 15.09375 
Q 17.09375 12.796875 17.5 11.296875 
Q 17.90625 9.796875 18.796875 8.890625 
Q 19.703125 8 21.203125 7.546875 
Q 22.703125 7.09375 24.90625 6.796875 
z
" id="Ubuntu-6c"/>
     <path d="M 26.796875 28.59375 
Q 29.796875 26.296875 33.140625 22.890625 
Q 36.5 19.5 39.75 15.546875 
Q 43 11.59375 45.890625 7.546875 
Q 48.796875 3.5 50.796875 0 
L 39.90625 0 
Q 37.796875 3.5 35.046875 7.140625 
Q 32.296875 10.796875 29.296875 14.140625 
Q 26.296875 17.5 23.1875 20.296875 
Q 20.09375 23.09375 17.296875 25 
L 17.296875 0 
L 8 0 
L 8 76 
L 17.296875 77.59375 
L 17.296875 30.203125 
Q 19.703125 32.59375 22.59375 35.5 
Q 25.5 38.40625 28.296875 41.40625 
Q 31.09375 44.40625 33.59375 47.15625 
Q 36.09375 49.90625 37.90625 52 
L 48.796875 52 
Q 46.5 49.5 43.796875 46.5 
Q 41.09375 43.5 38.1875 40.453125 
Q 35.296875 37.40625 32.34375 34.34375 
Q 29.40625 31.296875 26.796875 28.59375 
z
" id="Ubuntu-6b"/>
    </defs>
    <g transform="translate(180.8425 32.076875)scale(0.192 -0.192)">
     <use xlink:href="#Ubuntu-48"/>
     <use x="70.499985" xlink:href="#Ubuntu-6f"/>
     <use x="129.484344" xlink:href="#Ubuntu-77"/>
     <use x="207.184326" xlink:href="#Ubuntu-20"/>
     <use x="230.284317" xlink:href="#Ubuntu-62"/>
     <use x="289.184311" xlink:href="#Ubuntu-6f"/>
     <use x="348.184296" xlink:href="#Ubuntu-72"/>
     <use x="386.784286" xlink:href="#Ubuntu-69"/>
     <use x="412.084274" xlink:href="#Ubuntu-6e"/>
     <use x="469.484268" xlink:href="#Ubuntu-67"/>
     <use x="527.284256" xlink:href="#Ubuntu-20"/>
     <use x="550.384247" xlink:href="#Ubuntu-69"/>
     <use x="575.684235" xlink:href="#Ubuntu-73"/>
     <use x="620.284225" xlink:href="#Ubuntu-20"/>
     <use x="643.384216" xlink:href="#Ubuntu-74"/>
     <use x="683.584213" xlink:href="#Ubuntu-68"/>
     <use x="740.684204" xlink:href="#Ubuntu-69"/>
     <use x="765.984192" xlink:href="#Ubuntu-73"/>
     <use x="810.584183" xlink:href="#Ubuntu-20"/>
     <use x="833.684174" xlink:href="#Ubuntu-74"/>
     <use x="873.884171" xlink:href="#Ubuntu-61"/>
     <use x="926.084167" xlink:href="#Ubuntu-6c"/>
     <use x="953.384155" xlink:href="#Ubuntu-6b"/>
    </g>
   </g>
  </g>
 </g>
 <defs>
  <clipPath id="pa2c424eeb2">
   <rect height="261.143125" width="411.69" x="71.53" y="38.076875"/>
  </clipPath>
 </defs>
</svg>
