<?xml version="1.0" encoding="utf-8" standalone="no"?>
<!DOCTYPE svg PUBLIC "-//W3C//DTD SVG 1.1//EN"
  "http://www.w3.org/Graphics/SVG/1.1/DTD/svg11.dtd">
<!-- Created with matplotlib (http://matplotlib.org/) -->
<svg height="360pt" version="1.1" viewBox="0 0 504 360" width="504pt" xmlns="http://www.w3.org/2000/svg" xmlns:xlink="http://www.w3.org/1999/xlink">
 <defs>
  <style type="text/css">
*{stroke-linecap:butt;stroke-linejoin:round;}
  </style>
 </defs>
 <g id="figure_1">
  <g id="patch_1">
   <path d="M 0 360 
L 504 360 
L 504 0 
L 0 0 
z
" style="fill:#ffffff;"/>
  </g>
  <g id="axes_1">
   <g id="patch_2">
    <path d="M 71.655 299.22 
L 483.22 299.22 
L 483.22 37.99875 
L 71.655 37.99875 
z
" style="fill:#ffffff;"/>
   </g>
   <g id="patch_3">
    <path clip-path="url(#p520e94f921)" d="M 71.655 299.22 
L 130.45 299.22 
L 130.45 124.587409 
L 71.655 124.587409 
z
" style="fill:#1f77b4;stroke:#000000;stroke-linejoin:miter;"/>
   </g>
   <g id="patch_4">
    <path clip-path="url(#p520e94f921)" d="M 130.45 299.22 
L 189.245 299.22 
L 189.245 61.746136 
L 130.45 61.746136 
z
" style="fill:#1f77b4;stroke:#000000;stroke-linejoin:miter;"/>
   </g>
   <g id="patch_5">
    <path clip-path="url(#p520e94f921)" d="M 189.245 299.22 
L 248.04 299.22 
L 248.04 145.754996 
L 189.245 145.754996 
z
" style="fill:#1f77b4;stroke:#000000;stroke-linejoin:miter;"/>
   </g>
   <g id="patch_6">
    <path clip-path="url(#p520e94f921)" d="M 248.04 299.22 
L 306.835 299.22 
L 306.835 228.440882 
L 248.04 228.440882 
z
" style="fill:#1f77b4;stroke:#000000;stroke-linejoin:miter;"/>
   </g>
   <g id="patch_7">
    <path clip-path="url(#p520e94f921)" d="M 306.835 299.22 
L 365.63 299.22 
L 365.63 280.698362 
L 306.835 280.698362 
z
" style="fill:#1f77b4;stroke:#000000;stroke-linejoin:miter;"/>
   </g>
   <g id="patch_8">
    <path clip-path="url(#p520e94f921)" d="M 365.63 299.22 
L 424.425 299.22 
L 424.425 293.266616 
L 365.63 293.266616 
z
" style="fill:#1f77b4;stroke:#000000;stroke-linejoin:miter;"/>
   </g>
   <g id="patch_9">
    <path clip-path="url(#p520e94f921)" d="M 424.425 299.22 
L 483.22 299.22 
L 483.22 298.558513 
L 424.425 298.558513 
z
" style="fill:#1f77b4;stroke:#000000;stroke-linejoin:miter;"/>
   </g>
   <g id="matplotlib.axis_1">
    <g id="xtick_1">
     <g id="line2d_1">
      <defs>
       <path d="M 0 0 
L 0 3.5 
" id="mcf19c3f678" style="stroke:#000000;stroke-width:0.8;"/>
      </defs>
      <g>
       <use style="stroke:#000000;stroke-width:0.8;" x="101.0525" xlink:href="#mcf19c3f678" y="299.22"/>
      </g>
     </g>
     <g id="text_1">
      <!-- 0 -->
      <defs>
       <path d="M 5 34.703125 
Q 5 52.09375 11.140625 61.5 
Q 17.296875 70.90625 28.203125 70.90625 
Q 39.09375 70.90625 45.25 61.5 
Q 51.40625 52.09375 51.40625 34.703125 
Q 51.40625 17.296875 45.25 7.890625 
Q 39.09375 -1.5 28.203125 -1.5 
Q 17.296875 -1.5 11.140625 7.890625 
Q 5 17.296875 5 34.703125 
z
M 41.59375 34.703125 
Q 41.59375 40.40625 40.9375 45.5 
Q 40.296875 50.59375 38.75 54.390625 
Q 37.203125 58.203125 34.59375 60.453125 
Q 32 62.703125 28.203125 62.703125 
Q 24.40625 62.703125 21.796875 60.453125 
Q 19.203125 58.203125 17.640625 54.390625 
Q 16.09375 50.59375 15.4375 45.5 
Q 14.796875 40.40625 14.796875 34.703125 
Q 14.796875 29 15.4375 23.890625 
Q 16.09375 18.796875 17.640625 15 
Q 19.203125 11.203125 21.796875 8.953125 
Q 24.40625 6.703125 28.203125 6.703125 
Q 32 6.703125 34.59375 8.953125 
Q 37.203125 11.203125 38.75 15 
Q 40.296875 18.796875 40.9375 23.890625 
Q 41.59375 29 41.59375 34.703125 
z
" id="Ubuntu-30"/>
      </defs>
      <g transform="translate(96.54 318.635)scale(0.16 -0.16)">
       <use xlink:href="#Ubuntu-30"/>
      </g>
     </g>
    </g>
    <g id="xtick_2">
     <g id="line2d_2">
      <g>
       <use style="stroke:#000000;stroke-width:0.8;" x="159.8475" xlink:href="#mcf19c3f678" y="299.22"/>
      </g>
     </g>
     <g id="text_2">
      <!-- 1 -->
      <defs>
       <path d="M 9.296875 55 
Q 15 57.203125 20.390625 60.640625 
Q 25.796875 64.09375 30.296875 69.296875 
L 36.90625 69.296875 
L 36.90625 0 
L 27.59375 0 
L 27.59375 56.40625 
Q 26.40625 55.296875 24.65625 54.09375 
Q 22.90625 52.90625 20.84375 51.796875 
Q 18.796875 50.703125 16.546875 49.703125 
Q 14.296875 48.703125 12.203125 48 
z
" id="Ubuntu-31"/>
      </defs>
      <g transform="translate(155.335 318.635)scale(0.16 -0.16)">
       <use xlink:href="#Ubuntu-31"/>
      </g>
     </g>
    </g>
    <g id="xtick_3">
     <g id="line2d_3">
      <g>
       <use style="stroke:#000000;stroke-width:0.8;" x="218.6425" xlink:href="#mcf19c3f678" y="299.22"/>
      </g>
     </g>
     <g id="text_3">
      <!-- 2 -->
      <defs>
       <path d="M 46.703125 51.59375 
Q 46.703125 48 45.25 44.640625 
Q 43.796875 41.296875 41.390625 38.046875 
Q 39 34.796875 36 31.640625 
Q 33 28.5 30 25.5 
Q 28.296875 23.796875 26.046875 21.5 
Q 23.796875 19.203125 21.796875 16.703125 
Q 19.796875 14.203125 18.4375 11.890625 
Q 17.09375 9.59375 17.09375 7.90625 
L 49 7.90625 
L 49 0 
L 7 0 
Q 6.90625 0.59375 6.90625 1.1875 
Q 6.90625 1.796875 6.90625 2.296875 
Q 6.90625 7 8.453125 11.046875 
Q 10 15.09375 12.5 18.6875 
Q 15 22.296875 18.09375 25.5 
Q 21.203125 28.703125 24.203125 31.703125 
Q 26.703125 34.09375 28.953125 36.4375 
Q 31.203125 38.796875 32.953125 41.140625 
Q 34.703125 43.5 35.75 46 
Q 36.796875 48.5 36.796875 51.296875 
Q 36.796875 54.296875 35.84375 56.390625 
Q 34.90625 58.5 33.296875 59.890625 
Q 31.703125 61.296875 29.546875 61.9375 
Q 27.40625 62.59375 25 62.59375 
Q 22.09375 62.59375 19.6875 61.796875 
Q 17.296875 61 15.390625 59.953125 
Q 13.5 58.90625 12.203125 57.75 
Q 10.90625 56.59375 10.203125 56 
L 5.59375 62.59375 
Q 6.5 63.59375 8.296875 65.046875 
Q 10.09375 66.5 12.59375 67.796875 
Q 15.09375 69.09375 18.1875 70 
Q 21.296875 70.90625 24.90625 70.90625 
Q 35.796875 70.90625 41.25 65.84375 
Q 46.703125 60.796875 46.703125 51.59375 
z
" id="Ubuntu-32"/>
      </defs>
      <g transform="translate(214.13 318.635)scale(0.16 -0.16)">
       <use xlink:href="#Ubuntu-32"/>
      </g>
     </g>
    </g>
    <g id="xtick_4">
     <g id="line2d_4">
      <g>
       <use style="stroke:#000000;stroke-width:0.8;" x="277.4375" xlink:href="#mcf19c3f678" y="299.22"/>
      </g>
     </g>
     <g id="text_4">
      <!-- 3 -->
      <defs>
       <path d="M 22.59375 6.796875 
Q 31.5 6.796875 35.34375 10.296875 
Q 39.203125 13.796875 39.203125 19.703125 
Q 39.203125 23.5 37.59375 26.09375 
Q 36 28.703125 33.390625 30.25 
Q 30.796875 31.796875 27.34375 32.4375 
Q 23.90625 33.09375 20.296875 33.09375 
L 17.90625 33.09375 
L 17.90625 40.703125 
L 21.203125 40.703125 
Q 23.703125 40.703125 26.34375 41.203125 
Q 29 41.703125 31.203125 43 
Q 33.40625 44.296875 34.796875 46.546875 
Q 36.203125 48.796875 36.203125 52.203125 
Q 36.203125 55 35.203125 57 
Q 34.203125 59 32.546875 60.296875 
Q 30.90625 61.59375 28.75 62.140625 
Q 26.59375 62.703125 24.203125 62.703125 
Q 19.40625 62.703125 16.046875 61.296875 
Q 12.703125 59.90625 10.40625 58.40625 
L 6.796875 65.5 
Q 8 66.296875 9.84375 67.25 
Q 11.703125 68.203125 14 69 
Q 16.296875 69.796875 18.9375 70.34375 
Q 21.59375 70.90625 24.5 70.90625 
Q 30 70.90625 34 69.546875 
Q 38 68.203125 40.59375 65.75 
Q 43.203125 63.296875 44.5 59.9375 
Q 45.796875 56.59375 45.796875 52.703125 
Q 45.796875 47.296875 42.6875 43.4375 
Q 39.59375 39.59375 35.203125 37.59375 
Q 37.90625 36.796875 40.40625 35.296875 
Q 42.90625 33.796875 44.75 31.5 
Q 46.59375 29.203125 47.75 26.203125 
Q 48.90625 23.203125 48.90625 19.5 
Q 48.90625 15 47.34375 11.140625 
Q 45.796875 7.296875 42.546875 4.5 
Q 39.296875 1.703125 34.390625 0.09375 
Q 29.5 -1.5 22.796875 -1.5 
Q 20.203125 -1.5 17.453125 -1.09375 
Q 14.703125 -0.703125 12.296875 -0.09375 
Q 9.90625 0.5 8.09375 1.09375 
Q 6.296875 1.703125 5.5 2.09375 
L 7.296875 10.203125 
Q 9 9.40625 12.953125 8.09375 
Q 16.90625 6.796875 22.59375 6.796875 
z
" id="Ubuntu-33"/>
      </defs>
      <g transform="translate(272.925 318.635)scale(0.16 -0.16)">
       <use xlink:href="#Ubuntu-33"/>
      </g>
     </g>
    </g>
    <g id="xtick_5">
     <g id="line2d_5">
      <g>
       <use style="stroke:#000000;stroke-width:0.8;" x="336.2325" xlink:href="#mcf19c3f678" y="299.22"/>
      </g>
     </g>
     <g id="text_5">
      <!-- 4 -->
      <defs>
       <path d="M 4 24 
Q 5.90625 28.40625 9.203125 34.25 
Q 12.5 40.09375 16.640625 46.296875 
Q 20.796875 52.5 25.546875 58.5 
Q 30.296875 64.5 35.09375 69.296875 
L 44 69.296875 
L 44 25.296875 
L 52.203125 25.296875 
L 52.203125 17.703125 
L 44 17.703125 
L 44 0 
L 35 0 
L 35 17.703125 
L 4 17.703125 
z
M 35 58.296875 
Q 32 55.09375 28.953125 51.140625 
Q 25.90625 47.203125 23 42.890625 
Q 20.09375 38.59375 17.546875 34.09375 
Q 15 29.59375 13 25.296875 
L 35 25.296875 
z
" id="Ubuntu-34"/>
      </defs>
      <g transform="translate(331.72 318.635)scale(0.16 -0.16)">
       <use xlink:href="#Ubuntu-34"/>
      </g>
     </g>
    </g>
    <g id="xtick_6">
     <g id="line2d_6">
      <g>
       <use style="stroke:#000000;stroke-width:0.8;" x="395.0275" xlink:href="#mcf19c3f678" y="299.22"/>
      </g>
     </g>
     <g id="text_6">
      <!-- 5 -->
      <defs>
       <path d="M 19.90625 42.59375 
Q 35 42 42.046875 36 
Q 49.09375 30 49.09375 19.703125 
Q 49.09375 15.09375 47.546875 11.1875 
Q 46 7.296875 42.84375 4.5 
Q 39.703125 1.703125 34.890625 0.09375 
Q 30.09375 -1.5 23.5 -1.5 
Q 20.90625 -1.5 18.203125 -1.09375 
Q 15.5 -0.703125 13.203125 -0.09375 
Q 10.90625 0.5 9.09375 1.09375 
Q 7.296875 1.703125 6.5 2.09375 
L 8.296875 10.203125 
Q 10 9.40625 13.84375 8.09375 
Q 17.703125 6.796875 23.296875 6.796875 
Q 27.796875 6.796875 30.84375 7.796875 
Q 33.90625 8.796875 35.796875 10.5 
Q 37.703125 12.203125 38.546875 14.453125 
Q 39.40625 16.703125 39.40625 19.203125 
Q 39.40625 23 38.09375 25.953125 
Q 36.796875 28.90625 33.5 30.90625 
Q 30.203125 32.90625 24.703125 33.953125 
Q 19.203125 35 10.796875 35 
Q 11.40625 39.90625 11.75 44.203125 
Q 12.09375 48.5 12.390625 52.59375 
Q 12.703125 56.703125 12.890625 60.75 
Q 13.09375 64.796875 13.296875 69.296875 
L 46.703125 69.296875 
L 46.703125 61.40625 
L 21.40625 61.40625 
Q 21.296875 59.90625 21.09375 57.34375 
Q 20.90625 54.796875 20.703125 52.046875 
Q 20.5 49.296875 20.296875 46.6875 
Q 20.09375 44.09375 19.90625 42.59375 
z
" id="Ubuntu-35"/>
      </defs>
      <g transform="translate(390.515 318.635)scale(0.16 -0.16)">
       <use xlink:href="#Ubuntu-35"/>
      </g>
     </g>
    </g>
    <g id="xtick_7">
     <g id="line2d_7">
      <g>
       <use style="stroke:#000000;stroke-width:0.8;" x="453.8225" xlink:href="#mcf19c3f678" y="299.22"/>
      </g>
     </g>
     <g id="text_7">
      <!-- 6 -->
      <defs>
       <path d="M 6.296875 27.796875 
Q 6.296875 37.90625 9.09375 45.65625 
Q 11.90625 53.40625 17.046875 58.703125 
Q 22.203125 64 29.546875 66.75 
Q 36.90625 69.5 46.09375 69.59375 
L 46.796875 61.796875 
Q 40.90625 61.703125 36.046875 60.5 
Q 31.203125 59.296875 27.390625 56.6875 
Q 23.59375 54.09375 21 49.9375 
Q 18.40625 45.796875 17.09375 39.703125 
Q 19.703125 40.90625 22.953125 41.703125 
Q 26.203125 42.5 29.703125 42.5 
Q 35.59375 42.5 39.6875 40.703125 
Q 43.796875 38.90625 46.390625 35.953125 
Q 49 33 50.140625 29.140625 
Q 51.296875 25.296875 51.296875 21.09375 
Q 51.296875 17.296875 50 13.296875 
Q 48.703125 9.296875 46.046875 6 
Q 43.40625 2.703125 39.296875 0.59375 
Q 35.203125 -1.5 29.59375 -1.5 
Q 18.203125 -1.5 12.25 6.296875 
Q 6.296875 14.09375 6.296875 27.796875 
z
M 28.703125 34.90625 
Q 25.203125 34.90625 22.203125 34.25 
Q 19.203125 33.59375 16.203125 32.296875 
Q 16.09375 31.203125 16.046875 30.046875 
Q 16 28.90625 16 27.796875 
Q 16 23.40625 16.59375 19.5 
Q 17.203125 15.59375 18.75 12.640625 
Q 20.296875 9.703125 22.890625 7.953125 
Q 25.5 6.203125 29.5 6.203125 
Q 32.796875 6.203125 35.09375 7.59375 
Q 37.40625 9 38.90625 11.203125 
Q 40.40625 13.40625 41.046875 15.953125 
Q 41.703125 18.5 41.703125 20.90625 
Q 41.703125 27.703125 38.453125 31.296875 
Q 35.203125 34.90625 28.703125 34.90625 
z
" id="Ubuntu-36"/>
      </defs>
      <g transform="translate(449.31 318.635)scale(0.16 -0.16)">
       <use xlink:href="#Ubuntu-36"/>
      </g>
     </g>
    </g>
    <g id="text_8">
     <!-- Number of children -->
     <defs>
      <path d="M 56.09375 0 
Q 53.90625 3.703125 51.046875 8.296875 
Q 48.203125 12.90625 44.890625 17.84375 
Q 41.59375 22.796875 38.046875 27.890625 
Q 34.5 33 31 37.75 
Q 27.5 42.5 24.203125 46.703125 
Q 20.90625 50.90625 18.09375 54.09375 
L 18.09375 0 
L 8.59375 0 
L 8.59375 69.296875 
L 16.296875 69.296875 
Q 21 64.296875 26.34375 57.640625 
Q 31.703125 51 36.953125 43.953125 
Q 42.203125 36.90625 46.84375 30.09375 
Q 51.5 23.296875 54.703125 18 
L 54.703125 69.296875 
L 64.203125 69.296875 
L 64.203125 0 
z
" id="Ubuntu-4e"/>
      <path d="M 49.40625 1.5 
Q 46.203125 0.703125 40.953125 -0.1875 
Q 35.703125 -1.09375 28.796875 -1.09375 
Q 22.796875 -1.09375 18.6875 0.65625 
Q 14.59375 2.40625 12.09375 5.59375 
Q 9.59375 8.796875 8.5 13.140625 
Q 7.40625 17.5 7.40625 22.796875 
L 7.40625 52 
L 16.703125 52 
L 16.703125 24.796875 
Q 16.703125 15.296875 19.703125 11.1875 
Q 22.703125 7.09375 29.796875 7.09375 
Q 31.296875 7.09375 32.890625 7.1875 
Q 34.5 7.296875 35.890625 7.4375 
Q 37.296875 7.59375 38.4375 7.75 
Q 39.59375 7.90625 40.09375 8.09375 
L 40.09375 52 
L 49.40625 52 
z
" id="Ubuntu-75"/>
      <path d="M 8 50.5 
Q 11.203125 51.296875 16.453125 52.1875 
Q 21.703125 53.09375 28.59375 53.09375 
Q 33.59375 53.09375 37 51.75 
Q 40.40625 50.40625 42.703125 47.796875 
Q 43.40625 48.296875 44.90625 49.1875 
Q 46.40625 50.09375 48.59375 50.9375 
Q 50.796875 51.796875 53.5 52.4375 
Q 56.203125 53.09375 59.296875 53.09375 
Q 65.296875 53.09375 69.09375 51.34375 
Q 72.90625 49.59375 75.046875 46.390625 
Q 77.203125 43.203125 77.953125 38.796875 
Q 78.703125 34.40625 78.703125 29.203125 
L 78.703125 0 
L 69.40625 0 
L 69.40625 27.203125 
Q 69.40625 31.796875 68.953125 35.09375 
Q 68.5 38.40625 67.25 40.59375 
Q 66 42.796875 63.84375 43.84375 
Q 61.703125 44.90625 58.296875 44.90625 
Q 53.59375 44.90625 50.546875 43.65625 
Q 47.5 42.40625 46.40625 41.40625 
Q 47.203125 38.796875 47.59375 35.6875 
Q 48 32.59375 48 29.203125 
L 48 0 
L 38.703125 0 
L 38.703125 27.203125 
Q 38.703125 31.796875 38.203125 35.09375 
Q 37.703125 38.40625 36.453125 40.59375 
Q 35.203125 42.796875 33.046875 43.84375 
Q 30.90625 44.90625 27.59375 44.90625 
Q 26.203125 44.90625 24.59375 44.796875 
Q 23 44.703125 21.546875 44.546875 
Q 20.09375 44.40625 18.890625 44.203125 
Q 17.703125 44 17.296875 43.90625 
L 17.296875 0 
L 8 0 
z
" id="Ubuntu-6d"/>
      <path d="M 17.296875 49.703125 
Q 19 50.796875 22.453125 52 
Q 25.90625 53.203125 30.40625 53.203125 
Q 36 53.203125 40.34375 51.203125 
Q 44.703125 49.203125 47.703125 45.59375 
Q 50.703125 42 52.25 37 
Q 53.796875 32 53.796875 26 
Q 53.796875 19.703125 51.9375 14.640625 
Q 50.09375 9.59375 46.6875 6.09375 
Q 43.296875 2.59375 38.5 0.6875 
Q 33.703125 -1.203125 27.703125 -1.203125 
Q 21.203125 -1.203125 16.203125 -0.296875 
Q 11.203125 0.59375 8 1.5 
L 8 76 
L 17.296875 77.59375 
z
M 17.296875 8.09375 
Q 18.703125 7.703125 21.25 7.34375 
Q 23.796875 7 27.59375 7 
Q 35.09375 7 39.59375 11.953125 
Q 44.09375 16.90625 44.09375 26 
Q 44.09375 30 43.296875 33.5 
Q 42.5 37 40.703125 39.546875 
Q 38.90625 42.09375 36.046875 43.546875 
Q 33.203125 45 29.203125 45 
Q 25.40625 45 22.203125 43.703125 
Q 19 42.40625 17.296875 41 
z
" id="Ubuntu-62"/>
      <path d="M 5.09375 25.90625 
Q 5.09375 32.796875 7.09375 37.9375 
Q 9.09375 43.09375 12.390625 46.5 
Q 15.703125 49.90625 20 51.59375 
Q 24.296875 53.296875 28.796875 53.296875 
Q 39.296875 53.296875 44.890625 46.75 
Q 50.5 40.203125 50.5 26.796875 
Q 50.5 26.203125 50.5 25.25 
Q 50.5 24.296875 50.40625 23.5 
L 14.796875 23.5 
Q 15.40625 15.40625 19.5 11.203125 
Q 23.59375 7 32.296875 7 
Q 37.203125 7 40.546875 7.84375 
Q 43.90625 8.703125 45.59375 9.5 
L 46.90625 1.703125 
Q 45.203125 0.796875 40.953125 -0.203125 
Q 36.703125 -1.203125 31.296875 -1.203125 
Q 24.5 -1.203125 19.546875 0.84375 
Q 14.59375 2.90625 11.390625 6.5 
Q 8.203125 10.09375 6.640625 15.046875 
Q 5.09375 20 5.09375 25.90625 
z
M 40.796875 31 
Q 40.90625 37.296875 37.65625 41.34375 
Q 34.40625 45.40625 28.703125 45.40625 
Q 25.5 45.40625 23.046875 44.15625 
Q 20.59375 42.90625 18.890625 40.90625 
Q 17.203125 38.90625 16.25 36.296875 
Q 15.296875 33.703125 15 31 
z
" id="Ubuntu-65"/>
      <path d="M 27.203125 53.09375 
Q 28.40625 53.09375 29.953125 52.9375 
Q 31.5 52.796875 33 52.546875 
Q 34.5 52.296875 35.75 52.046875 
Q 37 51.796875 37.59375 51.59375 
L 36 43.5 
Q 34.90625 43.90625 32.34375 44.453125 
Q 29.796875 45 25.796875 45 
Q 23.203125 45 20.640625 44.453125 
Q 18.09375 43.90625 17.296875 43.703125 
L 17.296875 0 
L 8 0 
L 8 49.796875 
Q 11.296875 51 16.1875 52.046875 
Q 21.09375 53.09375 27.203125 53.09375 
z
" id="Ubuntu-72"/>
      <path id="Ubuntu-20"/>
      <path d="M 53.90625 26 
Q 53.90625 19.796875 52.09375 14.796875 
Q 50.296875 9.796875 47.046875 6.1875 
Q 43.796875 2.59375 39.296875 0.640625 
Q 34.796875 -1.296875 29.5 -1.296875 
Q 24.203125 -1.296875 19.703125 0.640625 
Q 15.203125 2.59375 11.953125 6.1875 
Q 8.703125 9.796875 6.890625 14.796875 
Q 5.09375 19.796875 5.09375 26 
Q 5.09375 32.09375 6.890625 37.140625 
Q 8.703125 42.203125 11.953125 45.796875 
Q 15.203125 49.40625 19.703125 51.34375 
Q 24.203125 53.296875 29.5 53.296875 
Q 34.796875 53.296875 39.296875 51.34375 
Q 43.796875 49.40625 47.046875 45.796875 
Q 50.296875 42.203125 52.09375 37.140625 
Q 53.90625 32.09375 53.90625 26 
z
M 44.203125 26 
Q 44.203125 34.796875 40.25 39.9375 
Q 36.296875 45.09375 29.5 45.09375 
Q 22.703125 45.09375 18.75 39.9375 
Q 14.796875 34.796875 14.796875 26 
Q 14.796875 17.203125 18.75 12.046875 
Q 22.703125 6.90625 29.5 6.90625 
Q 36.296875 6.90625 40.25 12.046875 
Q 44.203125 17.203125 44.203125 26 
z
" id="Ubuntu-6f"/>
      <path d="M 28.296875 77.59375 
Q 32.40625 77.59375 35.34375 77 
Q 38.296875 76.40625 39.5 75.90625 
L 37.796875 67.90625 
Q 36.59375 68.5 34.390625 69.046875 
Q 32.203125 69.59375 29 69.59375 
Q 22.5 69.59375 19.890625 66.046875 
Q 17.296875 62.5 17.296875 56.5 
L 17.296875 52 
L 37.296875 52 
L 37.296875 44.203125 
L 17.296875 44.203125 
L 17.296875 0 
L 8 0 
L 8 56.703125 
Q 8 66.703125 12.890625 72.140625 
Q 17.796875 77.59375 28.296875 77.59375 
z
" id="Ubuntu-66"/>
      <path d="M 30.59375 -1.203125 
Q 24.296875 -1.203125 19.546875 0.796875 
Q 14.796875 2.796875 11.546875 6.390625 
Q 8.296875 10 6.6875 14.953125 
Q 5.09375 19.90625 5.09375 25.90625 
Q 5.09375 31.90625 6.84375 36.90625 
Q 8.59375 41.90625 11.796875 45.546875 
Q 15 49.203125 19.640625 51.25 
Q 24.296875 53.296875 30 53.296875 
Q 33.5 53.296875 37 52.6875 
Q 40.5 52.09375 43.703125 50.796875 
L 41.59375 42.90625 
Q 39.5 43.90625 36.75 44.5 
Q 34 45.09375 30.90625 45.09375 
Q 23.09375 45.09375 18.9375 40.1875 
Q 14.796875 35.296875 14.796875 25.90625 
Q 14.796875 21.703125 15.75 18.203125 
Q 16.703125 14.703125 18.75 12.203125 
Q 20.796875 9.703125 24 8.34375 
Q 27.203125 7 31.796875 7 
Q 35.5 7 38.5 7.703125 
Q 41.5 8.40625 43.203125 9.203125 
L 44.5 1.40625 
Q 43.703125 0.90625 42.203125 0.453125 
Q 40.703125 0 38.796875 -0.34375 
Q 36.90625 -0.703125 34.75 -0.953125 
Q 32.59375 -1.203125 30.59375 -1.203125 
z
" id="Ubuntu-63"/>
      <path d="M 8 0 
L 8 76 
L 17.296875 77.59375 
L 17.296875 51 
Q 19.90625 52 22.84375 52.546875 
Q 25.796875 53.09375 28.703125 53.09375 
Q 34.90625 53.09375 39 51.34375 
Q 43.09375 49.59375 45.546875 46.4375 
Q 48 43.296875 49 38.890625 
Q 50 34.5 50 29.203125 
L 50 0 
L 40.703125 0 
L 40.703125 27.203125 
Q 40.703125 32 40.046875 35.390625 
Q 39.40625 38.796875 37.90625 40.890625 
Q 36.40625 43 33.90625 43.953125 
Q 31.40625 44.90625 27.703125 44.90625 
Q 26.203125 44.90625 24.59375 44.703125 
Q 23 44.5 21.546875 44.25 
Q 20.09375 44 18.9375 43.703125 
Q 17.796875 43.40625 17.296875 43.203125 
L 17.296875 0 
z
" id="Ubuntu-68"/>
      <path d="M 17.296875 0 
L 8 0 
L 8 52 
L 17.296875 52 
z
M 12.59375 61.40625 
Q 10.09375 61.40625 8.34375 63.046875 
Q 6.59375 64.703125 6.59375 67.5 
Q 6.59375 70.296875 8.34375 71.9375 
Q 10.09375 73.59375 12.59375 73.59375 
Q 15.09375 73.59375 16.84375 71.9375 
Q 18.59375 70.296875 18.59375 67.5 
Q 18.59375 64.703125 16.84375 63.046875 
Q 15.09375 61.40625 12.59375 61.40625 
z
" id="Ubuntu-69"/>
      <path d="M 23.59375 -1 
Q 15 -0.796875 11.390625 2.703125 
Q 7.796875 6.203125 7.796875 13.59375 
L 7.796875 76 
L 17.09375 77.59375 
L 17.09375 15.09375 
Q 17.09375 12.796875 17.5 11.296875 
Q 17.90625 9.796875 18.796875 8.890625 
Q 19.703125 8 21.203125 7.546875 
Q 22.703125 7.09375 24.90625 6.796875 
z
" id="Ubuntu-6c"/>
      <path d="M 41.59375 41 
Q 39.90625 42.40625 36.703125 43.703125 
Q 33.5 45 29.703125 45 
Q 25.703125 45 22.84375 43.546875 
Q 20 42.09375 18.203125 39.546875 
Q 16.40625 37 15.59375 33.5 
Q 14.796875 30 14.796875 26 
Q 14.796875 16.90625 19.296875 11.953125 
Q 23.796875 7 31.296875 7 
Q 35.09375 7 37.640625 7.34375 
Q 40.203125 7.703125 41.59375 8.09375 
z
M 41.59375 76 
L 50.90625 77.59375 
L 50.90625 1.5 
Q 47.703125 0.59375 42.703125 -0.296875 
Q 37.703125 -1.203125 31.203125 -1.203125 
Q 25.203125 -1.203125 20.390625 0.6875 
Q 15.59375 2.59375 12.1875 6.09375 
Q 8.796875 9.59375 6.9375 14.640625 
Q 5.09375 19.703125 5.09375 26 
Q 5.09375 32 6.640625 37 
Q 8.203125 42 11.203125 45.59375 
Q 14.203125 49.203125 18.546875 51.203125 
Q 22.90625 53.203125 28.5 53.203125 
Q 33 53.203125 36.453125 52 
Q 39.90625 50.796875 41.59375 49.703125 
z
" id="Ubuntu-64"/>
      <path d="M 8 50.5 
Q 11.203125 51.296875 16.5 52.1875 
Q 21.796875 53.09375 28.703125 53.09375 
Q 34.90625 53.09375 39 51.34375 
Q 43.09375 49.59375 45.546875 46.4375 
Q 48 43.296875 49 38.890625 
Q 50 34.5 50 29.203125 
L 50 0 
L 40.703125 0 
L 40.703125 27.203125 
Q 40.703125 32 40.046875 35.390625 
Q 39.40625 38.796875 37.90625 40.890625 
Q 36.40625 43 33.90625 43.953125 
Q 31.40625 44.90625 27.703125 44.90625 
Q 26.203125 44.90625 24.59375 44.796875 
Q 23 44.703125 21.546875 44.546875 
Q 20.09375 44.40625 18.9375 44.203125 
Q 17.796875 44 17.296875 43.90625 
L 17.296875 0 
L 8 0 
z
" id="Ubuntu-6e"/>
     </defs>
     <g transform="translate(206.99875 338.01)scale(0.16 -0.16)">
      <use xlink:href="#Ubuntu-4e"/>
      <use x="72.799988" xlink:href="#Ubuntu-75"/>
      <use x="130.199982" xlink:href="#Ubuntu-6d"/>
      <use x="216.299973" xlink:href="#Ubuntu-62"/>
      <use x="275.199966" xlink:href="#Ubuntu-65"/>
      <use x="331.09996" xlink:href="#Ubuntu-72"/>
      <use x="369.699951" xlink:href="#Ubuntu-20"/>
      <use x="392.799942" xlink:href="#Ubuntu-6f"/>
      <use x="451.799927" xlink:href="#Ubuntu-66"/>
      <use x="490.399918" xlink:href="#Ubuntu-20"/>
      <use x="513.499908" xlink:href="#Ubuntu-63"/>
      <use x="559.999893" xlink:href="#Ubuntu-68"/>
      <use x="617.099884" xlink:href="#Ubuntu-69"/>
      <use x="642.399872" xlink:href="#Ubuntu-6c"/>
      <use x="669.69986" xlink:href="#Ubuntu-64"/>
      <use x="728.599854" xlink:href="#Ubuntu-72"/>
      <use x="767.199844" xlink:href="#Ubuntu-65"/>
      <use x="823.099838" xlink:href="#Ubuntu-6e"/>
     </g>
    </g>
   </g>
   <g id="matplotlib.axis_2">
    <g id="ytick_1">
     <g id="line2d_8">
      <defs>
       <path d="M 0 0 
L -3.5 0 
" id="mf9cd1fb2f0" style="stroke:#000000;stroke-width:0.8;"/>
      </defs>
      <g>
       <use style="stroke:#000000;stroke-width:0.8;" x="71.655" xlink:href="#mf9cd1fb2f0" y="299.22"/>
      </g>
     </g>
     <g id="text_9">
      <!-- 0 -->
      <g transform="translate(55.63 305.4275)scale(0.16 -0.16)">
       <use xlink:href="#Ubuntu-30"/>
      </g>
     </g>
    </g>
    <g id="ytick_2">
     <g id="line2d_9">
      <g>
       <use style="stroke:#000000;stroke-width:0.8;" x="71.655" xlink:href="#mf9cd1fb2f0" y="266.145646"/>
      </g>
     </g>
     <g id="text_10">
      <!-- 50 -->
      <g transform="translate(46.605 272.353146)scale(0.16 -0.16)">
       <use xlink:href="#Ubuntu-35"/>
       <use x="56.399994" xlink:href="#Ubuntu-30"/>
      </g>
     </g>
    </g>
    <g id="ytick_3">
     <g id="line2d_10">
      <g>
       <use style="stroke:#000000;stroke-width:0.8;" x="71.655" xlink:href="#mf9cd1fb2f0" y="233.071291"/>
      </g>
     </g>
     <g id="text_11">
      <!-- 100 -->
      <g transform="translate(37.58 239.278791)scale(0.16 -0.16)">
       <use xlink:href="#Ubuntu-31"/>
       <use x="56.399994" xlink:href="#Ubuntu-30"/>
       <use x="112.799988" xlink:href="#Ubuntu-30"/>
      </g>
     </g>
    </g>
    <g id="ytick_4">
     <g id="line2d_11">
      <g>
       <use style="stroke:#000000;stroke-width:0.8;" x="71.655" xlink:href="#mf9cd1fb2f0" y="199.996937"/>
      </g>
     </g>
     <g id="text_12">
      <!-- 150 -->
      <g transform="translate(37.58 206.204437)scale(0.16 -0.16)">
       <use xlink:href="#Ubuntu-31"/>
       <use x="56.399994" xlink:href="#Ubuntu-35"/>
       <use x="112.799988" xlink:href="#Ubuntu-30"/>
      </g>
     </g>
    </g>
    <g id="ytick_5">
     <g id="line2d_12">
      <g>
       <use style="stroke:#000000;stroke-width:0.8;" x="71.655" xlink:href="#mf9cd1fb2f0" y="166.922583"/>
      </g>
     </g>
     <g id="text_13">
      <!-- 200 -->
      <g transform="translate(37.58 173.130083)scale(0.16 -0.16)">
       <use xlink:href="#Ubuntu-32"/>
       <use x="56.399994" xlink:href="#Ubuntu-30"/>
       <use x="112.799988" xlink:href="#Ubuntu-30"/>
      </g>
     </g>
    </g>
    <g id="ytick_6">
     <g id="line2d_13">
      <g>
       <use style="stroke:#000000;stroke-width:0.8;" x="71.655" xlink:href="#mf9cd1fb2f0" y="133.848229"/>
      </g>
     </g>
     <g id="text_14">
      <!-- 250 -->
      <g transform="translate(37.58 140.055729)scale(0.16 -0.16)">
       <use xlink:href="#Ubuntu-32"/>
       <use x="56.399994" xlink:href="#Ubuntu-35"/>
       <use x="112.799988" xlink:href="#Ubuntu-30"/>
      </g>
     </g>
    </g>
    <g id="ytick_7">
     <g id="line2d_14">
      <g>
       <use style="stroke:#000000;stroke-width:0.8;" x="71.655" xlink:href="#mf9cd1fb2f0" y="100.773874"/>
      </g>
     </g>
     <g id="text_15">
      <!-- 300 -->
      <g transform="translate(37.58 106.981374)scale(0.16 -0.16)">
       <use xlink:href="#Ubuntu-33"/>
       <use x="56.399994" xlink:href="#Ubuntu-30"/>
       <use x="112.799988" xlink:href="#Ubuntu-30"/>
      </g>
     </g>
    </g>
    <g id="ytick_8">
     <g id="line2d_15">
      <g>
       <use style="stroke:#000000;stroke-width:0.8;" x="71.655" xlink:href="#mf9cd1fb2f0" y="67.69952"/>
      </g>
     </g>
     <g id="text_16">
      <!-- 350 -->
      <g transform="translate(37.58 73.90702)scale(0.16 -0.16)">
       <use xlink:href="#Ubuntu-33"/>
       <use x="56.399994" xlink:href="#Ubuntu-35"/>
       <use x="112.799988" xlink:href="#Ubuntu-30"/>
      </g>
     </g>
    </g>
    <g id="text_17">
     <!-- Count -->
     <defs>
      <path d="M 38.40625 -1.5 
Q 31.09375 -1.5 25.09375 0.890625 
Q 19.09375 3.296875 14.796875 7.890625 
Q 10.5 12.5 8.140625 19.25 
Q 5.796875 26 5.796875 34.703125 
Q 5.796875 43.40625 8.4375 50.15625 
Q 11.09375 56.90625 15.59375 61.5 
Q 20.09375 66.09375 26.09375 68.5 
Q 32.09375 70.90625 38.90625 70.90625 
Q 43.203125 70.90625 46.640625 70.296875 
Q 50.09375 69.703125 52.640625 68.890625 
Q 55.203125 68.09375 56.796875 67.296875 
Q 58.40625 66.5 59 66.09375 
L 56.203125 58.09375 
Q 55.296875 58.703125 53.59375 59.390625 
Q 51.90625 60.09375 49.75 60.796875 
Q 47.59375 61.5 45.046875 61.953125 
Q 42.5 62.40625 39.90625 62.40625 
Q 34.40625 62.40625 30 60.5 
Q 25.59375 58.59375 22.5 55 
Q 19.40625 51.40625 17.75 46.25 
Q 16.09375 41.09375 16.09375 34.703125 
Q 16.09375 28.5 17.546875 23.390625 
Q 19 18.296875 21.890625 14.640625 
Q 24.796875 11 29.140625 9 
Q 33.5 7 39.296875 7 
Q 46 7 50.390625 8.390625 
Q 54.796875 9.796875 57 10.90625 
L 59.5 2.90625 
Q 58.796875 2.40625 57 1.65625 
Q 55.203125 0.90625 52.5 0.203125 
Q 49.796875 -0.5 46.1875 -1 
Q 42.59375 -1.5 38.40625 -1.5 
z
" id="Ubuntu-43"/>
      <path d="M 16.703125 52 
L 36.40625 52 
L 36.40625 44.203125 
L 16.703125 44.203125 
L 16.703125 20.203125 
Q 16.703125 16.296875 17.296875 13.75 
Q 17.90625 11.203125 19.09375 9.75 
Q 20.296875 8.296875 22.09375 7.6875 
Q 23.90625 7.09375 26.296875 7.09375 
Q 30.5 7.09375 33.046875 8.046875 
Q 35.59375 9 36.59375 9.40625 
L 38.40625 1.703125 
Q 37 1 33.5 -0.046875 
Q 30 -1.09375 25.5 -1.09375 
Q 20.203125 -1.09375 16.75 0.25 
Q 13.296875 1.59375 11.1875 4.296875 
Q 9.09375 7 8.25 10.953125 
Q 7.40625 14.90625 7.40625 20.09375 
L 7.40625 66.5 
L 16.703125 68.09375 
z
" id="Ubuntu-74"/>
     </defs>
     <g transform="translate(30.62 190.689375)rotate(-90)scale(0.16 -0.16)">
      <use xlink:href="#Ubuntu-43"/>
      <use x="61.98436" xlink:href="#Ubuntu-6f"/>
      <use x="120.984344" xlink:href="#Ubuntu-75"/>
      <use x="178.384338" xlink:href="#Ubuntu-6e"/>
      <use x="235.784332" xlink:href="#Ubuntu-74"/>
     </g>
    </g>
   </g>
   <g id="patch_10">
    <path d="M 71.655 299.22 
L 71.655 37.99875 
" style="fill:none;stroke:#000000;stroke-linecap:square;stroke-linejoin:miter;stroke-width:0.8;"/>
   </g>
   <g id="patch_11">
    <path d="M 483.22 299.22 
L 483.22 37.99875 
" style="fill:none;stroke:#000000;stroke-linecap:square;stroke-linejoin:miter;stroke-width:0.8;"/>
   </g>
   <g id="patch_12">
    <path d="M 71.655 299.22 
L 483.22 299.22 
" style="fill:none;stroke:#000000;stroke-linecap:square;stroke-linejoin:miter;stroke-width:0.8;"/>
   </g>
   <g id="patch_13">
    <path d="M 71.655 37.99875 
L 483.22 37.99875 
" style="fill:none;stroke:#000000;stroke-linecap:square;stroke-linejoin:miter;stroke-width:0.8;"/>
   </g>
   <g id="text_18">
    <!-- Family size -->
    <defs>
     <path d="M 8.59375 0 
L 8.59375 69.296875 
L 50.40625 69.296875 
L 50.40625 61 
L 18.296875 61 
L 18.296875 40.09375 
L 46.796875 40.09375 
L 46.796875 31.90625 
L 18.296875 31.90625 
L 18.296875 0 
z
" id="Ubuntu-46"/>
     <path d="M 25.59375 6.703125 
Q 28.90625 6.703125 31.453125 6.84375 
Q 34 7 35.703125 7.40625 
L 35.703125 22.90625 
Q 34.703125 23.40625 32.453125 23.75 
Q 30.203125 24.09375 27 24.09375 
Q 24.90625 24.09375 22.546875 23.796875 
Q 20.203125 23.5 18.25 22.546875 
Q 16.296875 21.59375 15 19.9375 
Q 13.703125 18.296875 13.703125 15.59375 
Q 13.703125 10.59375 16.890625 8.640625 
Q 20.09375 6.703125 25.59375 6.703125 
z
M 24.796875 53.296875 
Q 30.40625 53.296875 34.25 51.84375 
Q 38.09375 50.40625 40.4375 47.75 
Q 42.796875 45.09375 43.796875 41.4375 
Q 44.796875 37.796875 44.796875 33.40625 
L 44.796875 0.90625 
Q 43.59375 0.703125 41.4375 0.34375 
Q 39.296875 0 36.59375 -0.296875 
Q 33.90625 -0.59375 30.75 -0.84375 
Q 27.59375 -1.09375 24.5 -1.09375 
Q 20.09375 -1.09375 16.390625 -0.1875 
Q 12.703125 0.703125 10 2.640625 
Q 7.296875 4.59375 5.796875 7.796875 
Q 4.296875 11 4.296875 15.5 
Q 4.296875 19.796875 6.046875 22.890625 
Q 7.796875 26 10.796875 27.890625 
Q 13.796875 29.796875 17.796875 30.6875 
Q 21.796875 31.59375 26.203125 31.59375 
Q 27.59375 31.59375 29.09375 31.4375 
Q 30.59375 31.296875 31.9375 31.046875 
Q 33.296875 30.796875 34.296875 30.59375 
Q 35.296875 30.40625 35.703125 30.296875 
L 35.703125 32.90625 
Q 35.703125 35.203125 35.203125 37.453125 
Q 34.703125 39.703125 33.390625 41.453125 
Q 32.09375 43.203125 29.84375 44.25 
Q 27.59375 45.296875 24 45.296875 
Q 19.40625 45.296875 15.953125 44.640625 
Q 12.5 44 10.796875 43.296875 
L 9.703125 51 
Q 11.5 51.796875 15.703125 52.546875 
Q 19.90625 53.296875 24.796875 53.296875 
z
" id="Ubuntu-61"/>
     <path d="M 1.90625 -9.703125 
Q 3 -10.203125 4.75 -10.640625 
Q 6.5 -11.09375 8.203125 -11.09375 
Q 13.703125 -11.09375 16.796875 -8.640625 
Q 19.90625 -6.203125 22.40625 -0.703125 
Q 16.09375 11.296875 10.640625 24.75 
Q 5.203125 38.203125 1.59375 52 
L 11.59375 52 
Q 12.703125 47.5 14.25 42.296875 
Q 15.796875 37.09375 17.6875 31.59375 
Q 19.59375 26.09375 21.796875 20.59375 
Q 24 15.09375 26.40625 10 
Q 30.203125 20.5 33 30.796875 
Q 35.796875 41.09375 38.296875 52 
L 47.90625 52 
Q 44.296875 37.296875 39.890625 23.75 
Q 35.5 10.203125 30.40625 -1.59375 
Q 28.40625 -6.09375 26.25 -9.34375 
Q 24.09375 -12.59375 21.5 -14.6875 
Q 18.90625 -16.796875 15.65625 -17.796875 
Q 12.40625 -18.796875 8.296875 -18.796875 
Q 7.203125 -18.796875 6 -18.640625 
Q 4.796875 -18.5 3.640625 -18.25 
Q 2.5 -18 1.546875 -17.703125 
Q 0.59375 -17.40625 0.203125 -17.203125 
z
" id="Ubuntu-79"/>
     <path d="M 20.09375 6.703125 
Q 25.796875 6.703125 28.546875 8.203125 
Q 31.296875 9.703125 31.296875 13 
Q 31.296875 16.40625 28.59375 18.40625 
Q 25.90625 20.40625 19.703125 22.90625 
Q 16.703125 24.09375 13.953125 25.34375 
Q 11.203125 26.59375 9.203125 28.296875 
Q 7.203125 30 6 32.390625 
Q 4.796875 34.796875 4.796875 38.296875 
Q 4.796875 45.203125 9.890625 49.25 
Q 15 53.296875 23.796875 53.296875 
Q 26 53.296875 28.203125 53.046875 
Q 30.40625 52.796875 32.296875 52.4375 
Q 34.203125 52.09375 35.640625 51.6875 
Q 37.09375 51.296875 37.90625 51 
L 36.203125 43 
Q 34.703125 43.796875 31.5 44.640625 
Q 28.296875 45.5 23.796875 45.5 
Q 19.90625 45.5 17 43.953125 
Q 14.09375 42.40625 14.09375 39.09375 
Q 14.09375 37.40625 14.75 36.09375 
Q 15.40625 34.796875 16.75 33.75 
Q 18.09375 32.703125 20.09375 31.796875 
Q 22.09375 30.90625 24.90625 29.90625 
Q 28.59375 28.5 31.5 27.140625 
Q 34.40625 25.796875 36.453125 24 
Q 38.5 22.203125 39.59375 19.640625 
Q 40.703125 17.09375 40.703125 13.40625 
Q 40.703125 6.203125 35.34375 2.5 
Q 30 -1.203125 20.09375 -1.203125 
Q 13.203125 -1.203125 9.296875 -0.046875 
Q 5.40625 1.09375 4 1.703125 
L 5.703125 9.703125 
Q 7.296875 9.09375 10.796875 7.890625 
Q 14.296875 6.703125 20.09375 6.703125 
z
" id="Ubuntu-73"/>
     <path d="M 42.5 45 
Q 40.40625 42.703125 36.953125 38.5 
Q 33.5 34.296875 29.546875 29.1875 
Q 25.59375 24.09375 21.640625 18.5 
Q 17.703125 12.90625 14.703125 7.796875 
L 43.296875 7.796875 
L 43.296875 0 
L 3.59375 0 
L 3.59375 6.203125 
Q 6 10.59375 9.5 15.890625 
Q 13 21.203125 16.84375 26.453125 
Q 20.703125 31.703125 24.34375 36.34375 
Q 28 41 30.703125 44.203125 
L 5 44.203125 
L 5 52 
L 42.5 52 
z
" id="Ubuntu-7a"/>
    </defs>
    <g transform="translate(230.3795 31.99875)scale(0.192 -0.192)">
     <use xlink:href="#Ubuntu-46"/>
     <use x="53.621872" xlink:href="#Ubuntu-61"/>
     <use x="105.821869" xlink:href="#Ubuntu-6d"/>
     <use x="191.92186" xlink:href="#Ubuntu-69"/>
     <use x="217.221848" xlink:href="#Ubuntu-6c"/>
     <use x="244.521835" xlink:href="#Ubuntu-79"/>
     <use x="294.221832" xlink:href="#Ubuntu-20"/>
     <use x="317.321823" xlink:href="#Ubuntu-73"/>
     <use x="361.921814" xlink:href="#Ubuntu-69"/>
     <use x="387.221802" xlink:href="#Ubuntu-7a"/>
     <use x="434.306168" xlink:href="#Ubuntu-65"/>
    </g>
   </g>
  </g>
 </g>
 <defs>
  <clipPath id="p520e94f921">
   <rect height="261.22125" width="411.565" x="71.655" y="37.99875"/>
  </clipPath>
 </defs>
</svg>
