<?xml version="1.0" encoding="utf-8" standalone="no"?>
<!DOCTYPE svg PUBLIC "-//W3C//DTD SVG 1.1//EN"
  "http://www.w3.org/Graphics/SVG/1.1/DTD/svg11.dtd">
<!-- Created with matplotlib (http://matplotlib.org/) -->
<svg height="360pt" version="1.1" viewBox="0 0 360 360" width="360pt" xmlns="http://www.w3.org/2000/svg" xmlns:xlink="http://www.w3.org/1999/xlink">
 <defs>
  <style type="text/css">
*{stroke-linecap:butt;stroke-linejoin:round;}
  </style>
 </defs>
 <g id="figure_1">
  <g id="patch_1">
   <path d="M 0 360 
L 360 360 
L 360 0 
L 0 0 
z
" style="fill:#ffffff;"/>
  </g>
  <g id="axes_1">
   <g id="patch_2">
    <path d="M 51.405 299.22 
L 337.451719 299.22 
L 337.451719 38.076875 
L 51.405 38.076875 
z
" style="fill:#ffffff;"/>
   </g>
   <g id="patch_3">
    <path clip-path="url(#pef75f16e5f)" d="M 51.405 299.22 
L 80.009672 299.22 
L 80.009672 291.887094 
L 51.405 291.887094 
z
" style="fill:#ffff00;stroke:#000000;stroke-linejoin:miter;"/>
   </g>
   <g id="patch_4">
    <path clip-path="url(#pef75f16e5f)" d="M 80.009672 299.22 
L 108.614344 299.22 
L 108.614344 266.221922 
L 80.009672 266.221922 
z
" style="fill:#ffff00;stroke:#000000;stroke-linejoin:miter;"/>
   </g>
   <g id="patch_5">
    <path clip-path="url(#pef75f16e5f)" d="M 108.614344 299.22 
L 137.219016 299.22 
L 137.219016 186.476566 
L 108.614344 186.476566 
z
" style="fill:#ffff00;stroke:#000000;stroke-linejoin:miter;"/>
   </g>
   <g id="patch_6">
    <path clip-path="url(#pef75f16e5f)" d="M 137.219016 299.22 
L 165.823688 299.22 
L 165.823688 81.066038 
L 137.219016 81.066038 
z
" style="fill:#ffff00;stroke:#000000;stroke-linejoin:miter;"/>
   </g>
   <g id="patch_7">
    <path clip-path="url(#pef75f16e5f)" d="M 165.823687 299.22 
L 194.428359 299.22 
L 194.428359 61.817159 
L 165.823687 61.817159 
z
" style="fill:#ffff00;stroke:#000000;stroke-linejoin:miter;"/>
   </g>
   <g id="patch_8">
    <path clip-path="url(#pef75f16e5f)" d="M 194.428359 299.22 
L 223.033031 299.22 
L 223.033031 100.314917 
L 194.428359 100.314917 
z
" style="fill:#ffff00;stroke:#000000;stroke-linejoin:miter;"/>
   </g>
   <g id="patch_9">
    <path clip-path="url(#pef75f16e5f)" d="M 223.033031 299.22 
L 251.637703 299.22 
L 251.637703 216.724804 
L 223.033031 216.724804 
z
" style="fill:#ffff00;stroke:#000000;stroke-linejoin:miter;"/>
   </g>
   <g id="patch_10">
    <path clip-path="url(#pef75f16e5f)" d="M 251.637703 299.22 
L 280.242375 299.22 
L 280.242375 279.054508 
L 251.637703 279.054508 
z
" style="fill:#ffff00;stroke:#000000;stroke-linejoin:miter;"/>
   </g>
   <g id="patch_11">
    <path clip-path="url(#pef75f16e5f)" d="M 280.242375 299.22 
L 308.847047 299.22 
L 308.847047 293.72032 
L 280.242375 293.72032 
z
" style="fill:#ffff00;stroke:#000000;stroke-linejoin:miter;"/>
   </g>
   <g id="patch_12">
    <path clip-path="url(#pef75f16e5f)" d="M 308.847047 299.22 
L 337.451719 299.22 
L 337.451719 298.303387 
L 308.847047 298.303387 
z
" style="fill:#ffff00;stroke:#000000;stroke-linejoin:miter;"/>
   </g>
   <g id="matplotlib.axis_1">
    <g id="xtick_1">
     <g id="line2d_1">
      <defs>
       <path d="M 0 0 
L 0 3.5 
" id="m1e801bdba6" style="stroke:#000000;stroke-width:0.8;"/>
      </defs>
      <g>
       <use style="stroke:#000000;stroke-width:0.8;" x="107.119217" xlink:href="#m1e801bdba6" y="299.22"/>
      </g>
     </g>
     <g id="text_1">
      <!-- 75 -->
      <defs>
       <path d="M 16.296875 0 
Q 16.90625 8 19.15625 16.84375 
Q 21.40625 25.703125 24.703125 34.046875 
Q 28 42.40625 31.953125 49.546875 
Q 35.90625 56.703125 39.703125 61.203125 
L 6 61.203125 
L 6 69.296875 
L 50.09375 69.296875 
L 50.09375 61.59375 
Q 46.796875 57.796875 42.796875 51.140625 
Q 38.796875 44.5 35.25 36.25 
Q 31.703125 28 29.140625 18.640625 
Q 26.59375 9.296875 26 0 
z
" id="Ubuntu-37"/>
       <path d="M 19.90625 42.59375 
Q 35 42 42.046875 36 
Q 49.09375 30 49.09375 19.703125 
Q 49.09375 15.09375 47.546875 11.1875 
Q 46 7.296875 42.84375 4.5 
Q 39.703125 1.703125 34.890625 0.09375 
Q 30.09375 -1.5 23.5 -1.5 
Q 20.90625 -1.5 18.203125 -1.09375 
Q 15.5 -0.703125 13.203125 -0.09375 
Q 10.90625 0.5 9.09375 1.09375 
Q 7.296875 1.703125 6.5 2.09375 
L 8.296875 10.203125 
Q 10 9.40625 13.84375 8.09375 
Q 17.703125 6.796875 23.296875 6.796875 
Q 27.796875 6.796875 30.84375 7.796875 
Q 33.90625 8.796875 35.796875 10.5 
Q 37.703125 12.203125 38.546875 14.453125 
Q 39.40625 16.703125 39.40625 19.203125 
Q 39.40625 23 38.09375 25.953125 
Q 36.796875 28.90625 33.5 30.90625 
Q 30.203125 32.90625 24.703125 33.953125 
Q 19.203125 35 10.796875 35 
Q 11.40625 39.90625 11.75 44.203125 
Q 12.09375 48.5 12.390625 52.59375 
Q 12.703125 56.703125 12.890625 60.75 
Q 13.09375 64.796875 13.296875 69.296875 
L 46.703125 69.296875 
L 46.703125 61.40625 
L 21.40625 61.40625 
Q 21.296875 59.90625 21.09375 57.34375 
Q 20.90625 54.796875 20.703125 52.046875 
Q 20.5 49.296875 20.296875 46.6875 
Q 20.09375 44.09375 19.90625 42.59375 
z
" id="Ubuntu-35"/>
      </defs>
      <g transform="translate(98.094217 318.635)scale(0.16 -0.16)">
       <use xlink:href="#Ubuntu-37"/>
       <use x="56.399994" xlink:href="#Ubuntu-35"/>
      </g>
     </g>
    </g>
    <g id="xtick_2">
     <g id="line2d_2">
      <g>
       <use style="stroke:#000000;stroke-width:0.8;" x="175.757527" xlink:href="#m1e801bdba6" y="299.22"/>
      </g>
     </g>
     <g id="text_2">
      <!-- 100 -->
      <defs>
       <path d="M 9.296875 55 
Q 15 57.203125 20.390625 60.640625 
Q 25.796875 64.09375 30.296875 69.296875 
L 36.90625 69.296875 
L 36.90625 0 
L 27.59375 0 
L 27.59375 56.40625 
Q 26.40625 55.296875 24.65625 54.09375 
Q 22.90625 52.90625 20.84375 51.796875 
Q 18.796875 50.703125 16.546875 49.703125 
Q 14.296875 48.703125 12.203125 48 
z
" id="Ubuntu-31"/>
       <path d="M 5 34.703125 
Q 5 52.09375 11.140625 61.5 
Q 17.296875 70.90625 28.203125 70.90625 
Q 39.09375 70.90625 45.25 61.5 
Q 51.40625 52.09375 51.40625 34.703125 
Q 51.40625 17.296875 45.25 7.890625 
Q 39.09375 -1.5 28.203125 -1.5 
Q 17.296875 -1.5 11.140625 7.890625 
Q 5 17.296875 5 34.703125 
z
M 41.59375 34.703125 
Q 41.59375 40.40625 40.9375 45.5 
Q 40.296875 50.59375 38.75 54.390625 
Q 37.203125 58.203125 34.59375 60.453125 
Q 32 62.703125 28.203125 62.703125 
Q 24.40625 62.703125 21.796875 60.453125 
Q 19.203125 58.203125 17.640625 54.390625 
Q 16.09375 50.59375 15.4375 45.5 
Q 14.796875 40.40625 14.796875 34.703125 
Q 14.796875 29 15.4375 23.890625 
Q 16.09375 18.796875 17.640625 15 
Q 19.203125 11.203125 21.796875 8.953125 
Q 24.40625 6.703125 28.203125 6.703125 
Q 32 6.703125 34.59375 8.953125 
Q 37.203125 11.203125 38.75 15 
Q 40.296875 18.796875 40.9375 23.890625 
Q 41.59375 29 41.59375 34.703125 
z
" id="Ubuntu-30"/>
      </defs>
      <g transform="translate(162.220027 318.635)scale(0.16 -0.16)">
       <use xlink:href="#Ubuntu-31"/>
       <use x="56.399994" xlink:href="#Ubuntu-30"/>
       <use x="112.799988" xlink:href="#Ubuntu-30"/>
      </g>
     </g>
    </g>
    <g id="xtick_3">
     <g id="line2d_3">
      <g>
       <use style="stroke:#000000;stroke-width:0.8;" x="244.395836" xlink:href="#m1e801bdba6" y="299.22"/>
      </g>
     </g>
     <g id="text_3">
      <!-- 125 -->
      <defs>
       <path d="M 46.703125 51.59375 
Q 46.703125 48 45.25 44.640625 
Q 43.796875 41.296875 41.390625 38.046875 
Q 39 34.796875 36 31.640625 
Q 33 28.5 30 25.5 
Q 28.296875 23.796875 26.046875 21.5 
Q 23.796875 19.203125 21.796875 16.703125 
Q 19.796875 14.203125 18.4375 11.890625 
Q 17.09375 9.59375 17.09375 7.90625 
L 49 7.90625 
L 49 0 
L 7 0 
Q 6.90625 0.59375 6.90625 1.1875 
Q 6.90625 1.796875 6.90625 2.296875 
Q 6.90625 7 8.453125 11.046875 
Q 10 15.09375 12.5 18.6875 
Q 15 22.296875 18.09375 25.5 
Q 21.203125 28.703125 24.203125 31.703125 
Q 26.703125 34.09375 28.953125 36.4375 
Q 31.203125 38.796875 32.953125 41.140625 
Q 34.703125 43.5 35.75 46 
Q 36.796875 48.5 36.796875 51.296875 
Q 36.796875 54.296875 35.84375 56.390625 
Q 34.90625 58.5 33.296875 59.890625 
Q 31.703125 61.296875 29.546875 61.9375 
Q 27.40625 62.59375 25 62.59375 
Q 22.09375 62.59375 19.6875 61.796875 
Q 17.296875 61 15.390625 59.953125 
Q 13.5 58.90625 12.203125 57.75 
Q 10.90625 56.59375 10.203125 56 
L 5.59375 62.59375 
Q 6.5 63.59375 8.296875 65.046875 
Q 10.09375 66.5 12.59375 67.796875 
Q 15.09375 69.09375 18.1875 70 
Q 21.296875 70.90625 24.90625 70.90625 
Q 35.796875 70.90625 41.25 65.84375 
Q 46.703125 60.796875 46.703125 51.59375 
z
" id="Ubuntu-32"/>
      </defs>
      <g transform="translate(230.858336 318.635)scale(0.16 -0.16)">
       <use xlink:href="#Ubuntu-31"/>
       <use x="56.399994" xlink:href="#Ubuntu-32"/>
       <use x="112.799988" xlink:href="#Ubuntu-35"/>
      </g>
     </g>
    </g>
    <g id="xtick_4">
     <g id="line2d_4">
      <g>
       <use style="stroke:#000000;stroke-width:0.8;" x="313.034146" xlink:href="#m1e801bdba6" y="299.22"/>
      </g>
     </g>
     <g id="text_4">
      <!-- 150 -->
      <g transform="translate(299.496646 318.635)scale(0.16 -0.16)">
       <use xlink:href="#Ubuntu-31"/>
       <use x="56.399994" xlink:href="#Ubuntu-35"/>
       <use x="112.799988" xlink:href="#Ubuntu-30"/>
      </g>
     </g>
    </g>
    <g id="text_5">
     <!-- I.Q. -->
     <defs>
      <path d="M 8.59375 69.296875 
L 18.296875 69.296875 
L 18.296875 0 
L 8.59375 0 
z
" id="Ubuntu-49"/>
      <path d="M 19 5.40625 
Q 19 2.703125 17.203125 0.703125 
Q 15.40625 -1.296875 12.296875 -1.296875 
Q 9.203125 -1.296875 7.390625 0.703125 
Q 5.59375 2.703125 5.59375 5.40625 
Q 5.59375 8.09375 7.390625 10.09375 
Q 9.203125 12.09375 12.296875 12.09375 
Q 15.40625 12.09375 17.203125 10.09375 
Q 19 8.09375 19 5.40625 
z
" id="Ubuntu-2e"/>
      <path d="M 5.796875 34.703125 
Q 5.796875 43.59375 8.4375 50.390625 
Q 11.09375 57.203125 15.640625 61.75 
Q 20.203125 66.296875 26.25 68.59375 
Q 32.296875 70.90625 39.09375 70.90625 
Q 45.796875 70.90625 51.75 68.59375 
Q 57.703125 66.296875 62.203125 61.75 
Q 66.703125 57.203125 69.34375 50.390625 
Q 72 43.59375 72 34.703125 
Q 72 26.90625 70 20.796875 
Q 68 14.703125 64.453125 10.25 
Q 60.90625 5.796875 56.15625 3.046875 
Q 51.40625 0.296875 46 -0.703125 
Q 46.09375 -3 48.046875 -4.75 
Q 50 -6.5 53 -7.703125 
Q 56 -8.90625 59.703125 -9.703125 
Q 63.40625 -10.5 67.09375 -10.90625 
L 64.796875 -18.5 
Q 59.59375 -17.796875 54.84375 -16.640625 
Q 50.09375 -15.5 46.25 -13.59375 
Q 42.40625 -11.703125 39.796875 -8.75 
Q 37.203125 -5.796875 36.296875 -1.40625 
Q 30 -1 24.390625 1.546875 
Q 18.796875 4.09375 14.6875 8.640625 
Q 10.59375 13.203125 8.1875 19.703125 
Q 5.796875 26.203125 5.796875 34.703125 
z
M 16 34.703125 
Q 16 28.40625 17.59375 23.25 
Q 19.203125 18.09375 22.140625 14.5 
Q 25.09375 10.90625 29.34375 8.953125 
Q 33.59375 7 38.90625 7 
Q 44.203125 7 48.390625 8.953125 
Q 52.59375 10.90625 55.546875 14.5 
Q 58.5 18.09375 60.09375 23.25 
Q 61.703125 28.40625 61.703125 34.703125 
Q 61.703125 41 60.09375 46.140625 
Q 58.5 51.296875 55.546875 54.890625 
Q 52.59375 58.5 48.390625 60.453125 
Q 44.203125 62.40625 38.90625 62.40625 
Q 33.59375 62.40625 29.34375 60.453125 
Q 25.09375 58.5 22.140625 54.890625 
Q 19.203125 51.296875 17.59375 46.140625 
Q 16 41 16 34.703125 
z
" id="Ubuntu-51"/>
     </defs>
     <g transform="translate(182.124609 338.01)scale(0.16 -0.16)">
      <use xlink:href="#Ubuntu-49"/>
      <use x="26.899994" xlink:href="#Ubuntu-2e"/>
      <use x="51.45311" xlink:href="#Ubuntu-51"/>
      <use x="129.206223" xlink:href="#Ubuntu-2e"/>
     </g>
    </g>
   </g>
   <g id="matplotlib.axis_2">
    <g id="ytick_1">
     <g id="line2d_5">
      <defs>
       <path d="M 0 0 
L -3.5 0 
" id="m6bc86b8cb2" style="stroke:#000000;stroke-width:0.8;"/>
      </defs>
      <g>
       <use style="stroke:#000000;stroke-width:0.8;" x="51.405" xlink:href="#m6bc86b8cb2" y="299.22"/>
      </g>
     </g>
     <g id="text_6">
      <!-- 0 -->
      <g transform="translate(35.38 305.4275)scale(0.16 -0.16)">
       <use xlink:href="#Ubuntu-30"/>
      </g>
     </g>
    </g>
    <g id="ytick_2">
     <g id="line2d_6">
      <g>
       <use style="stroke:#000000;stroke-width:0.8;" x="51.405" xlink:href="#m6bc86b8cb2" y="253.389336"/>
      </g>
     </g>
     <g id="text_7">
      <!-- 50 -->
      <g transform="translate(26.355 259.596836)scale(0.16 -0.16)">
       <use xlink:href="#Ubuntu-35"/>
       <use x="56.399994" xlink:href="#Ubuntu-30"/>
      </g>
     </g>
    </g>
    <g id="ytick_3">
     <g id="line2d_7">
      <g>
       <use style="stroke:#000000;stroke-width:0.8;" x="51.405" xlink:href="#m6bc86b8cb2" y="207.558671"/>
      </g>
     </g>
     <g id="text_8">
      <!-- 100 -->
      <g transform="translate(17.33 213.766171)scale(0.16 -0.16)">
       <use xlink:href="#Ubuntu-31"/>
       <use x="56.399994" xlink:href="#Ubuntu-30"/>
       <use x="112.799988" xlink:href="#Ubuntu-30"/>
      </g>
     </g>
    </g>
    <g id="ytick_4">
     <g id="line2d_8">
      <g>
       <use style="stroke:#000000;stroke-width:0.8;" x="51.405" xlink:href="#m6bc86b8cb2" y="161.728007"/>
      </g>
     </g>
     <g id="text_9">
      <!-- 150 -->
      <g transform="translate(17.33 167.935507)scale(0.16 -0.16)">
       <use xlink:href="#Ubuntu-31"/>
       <use x="56.399994" xlink:href="#Ubuntu-35"/>
       <use x="112.799988" xlink:href="#Ubuntu-30"/>
      </g>
     </g>
    </g>
    <g id="ytick_5">
     <g id="line2d_9">
      <g>
       <use style="stroke:#000000;stroke-width:0.8;" x="51.405" xlink:href="#m6bc86b8cb2" y="115.897343"/>
      </g>
     </g>
     <g id="text_10">
      <!-- 200 -->
      <g transform="translate(17.33 122.104843)scale(0.16 -0.16)">
       <use xlink:href="#Ubuntu-32"/>
       <use x="56.399994" xlink:href="#Ubuntu-30"/>
       <use x="112.799988" xlink:href="#Ubuntu-30"/>
      </g>
     </g>
    </g>
    <g id="ytick_6">
     <g id="line2d_10">
      <g>
       <use style="stroke:#000000;stroke-width:0.8;" x="51.405" xlink:href="#m6bc86b8cb2" y="70.066679"/>
      </g>
     </g>
     <g id="text_11">
      <!-- 250 -->
      <g transform="translate(17.33 76.274179)scale(0.16 -0.16)">
       <use xlink:href="#Ubuntu-32"/>
       <use x="56.399994" xlink:href="#Ubuntu-35"/>
       <use x="112.799988" xlink:href="#Ubuntu-30"/>
      </g>
     </g>
    </g>
   </g>
   <g id="patch_13">
    <path d="M 51.405 299.22 
L 51.405 38.076875 
" style="fill:none;stroke:#000000;stroke-linecap:square;stroke-linejoin:miter;stroke-width:0.8;"/>
   </g>
   <g id="patch_14">
    <path d="M 337.451719 299.22 
L 337.451719 38.076875 
" style="fill:none;stroke:#000000;stroke-linecap:square;stroke-linejoin:miter;stroke-width:0.8;"/>
   </g>
   <g id="patch_15">
    <path d="M 51.405 299.22 
L 337.451719 299.22 
" style="fill:none;stroke:#000000;stroke-linecap:square;stroke-linejoin:miter;stroke-width:0.8;"/>
   </g>
   <g id="patch_16">
    <path d="M 51.405 38.076875 
L 337.451719 38.076875 
" style="fill:none;stroke:#000000;stroke-linecap:square;stroke-linejoin:miter;stroke-width:0.8;"/>
   </g>
   <g id="text_12">
    <!-- Intelligence of people in Fakeland -->
    <defs>
     <path d="M 8 50.5 
Q 11.203125 51.296875 16.5 52.1875 
Q 21.796875 53.09375 28.703125 53.09375 
Q 34.90625 53.09375 39 51.34375 
Q 43.09375 49.59375 45.546875 46.4375 
Q 48 43.296875 49 38.890625 
Q 50 34.5 50 29.203125 
L 50 0 
L 40.703125 0 
L 40.703125 27.203125 
Q 40.703125 32 40.046875 35.390625 
Q 39.40625 38.796875 37.90625 40.890625 
Q 36.40625 43 33.90625 43.953125 
Q 31.40625 44.90625 27.703125 44.90625 
Q 26.203125 44.90625 24.59375 44.796875 
Q 23 44.703125 21.546875 44.546875 
Q 20.09375 44.40625 18.9375 44.203125 
Q 17.796875 44 17.296875 43.90625 
L 17.296875 0 
L 8 0 
z
" id="Ubuntu-6e"/>
     <path d="M 16.703125 52 
L 36.40625 52 
L 36.40625 44.203125 
L 16.703125 44.203125 
L 16.703125 20.203125 
Q 16.703125 16.296875 17.296875 13.75 
Q 17.90625 11.203125 19.09375 9.75 
Q 20.296875 8.296875 22.09375 7.6875 
Q 23.90625 7.09375 26.296875 7.09375 
Q 30.5 7.09375 33.046875 8.046875 
Q 35.59375 9 36.59375 9.40625 
L 38.40625 1.703125 
Q 37 1 33.5 -0.046875 
Q 30 -1.09375 25.5 -1.09375 
Q 20.203125 -1.09375 16.75 0.25 
Q 13.296875 1.59375 11.1875 4.296875 
Q 9.09375 7 8.25 10.953125 
Q 7.40625 14.90625 7.40625 20.09375 
L 7.40625 66.5 
L 16.703125 68.09375 
z
" id="Ubuntu-74"/>
     <path d="M 5.09375 25.90625 
Q 5.09375 32.796875 7.09375 37.9375 
Q 9.09375 43.09375 12.390625 46.5 
Q 15.703125 49.90625 20 51.59375 
Q 24.296875 53.296875 28.796875 53.296875 
Q 39.296875 53.296875 44.890625 46.75 
Q 50.5 40.203125 50.5 26.796875 
Q 50.5 26.203125 50.5 25.25 
Q 50.5 24.296875 50.40625 23.5 
L 14.796875 23.5 
Q 15.40625 15.40625 19.5 11.203125 
Q 23.59375 7 32.296875 7 
Q 37.203125 7 40.546875 7.84375 
Q 43.90625 8.703125 45.59375 9.5 
L 46.90625 1.703125 
Q 45.203125 0.796875 40.953125 -0.203125 
Q 36.703125 -1.203125 31.296875 -1.203125 
Q 24.5 -1.203125 19.546875 0.84375 
Q 14.59375 2.90625 11.390625 6.5 
Q 8.203125 10.09375 6.640625 15.046875 
Q 5.09375 20 5.09375 25.90625 
z
M 40.796875 31 
Q 40.90625 37.296875 37.65625 41.34375 
Q 34.40625 45.40625 28.703125 45.40625 
Q 25.5 45.40625 23.046875 44.15625 
Q 20.59375 42.90625 18.890625 40.90625 
Q 17.203125 38.90625 16.25 36.296875 
Q 15.296875 33.703125 15 31 
z
" id="Ubuntu-65"/>
     <path d="M 23.59375 -1 
Q 15 -0.796875 11.390625 2.703125 
Q 7.796875 6.203125 7.796875 13.59375 
L 7.796875 76 
L 17.09375 77.59375 
L 17.09375 15.09375 
Q 17.09375 12.796875 17.5 11.296875 
Q 17.90625 9.796875 18.796875 8.890625 
Q 19.703125 8 21.203125 7.546875 
Q 22.703125 7.09375 24.90625 6.796875 
z
" id="Ubuntu-6c"/>
     <path d="M 17.296875 0 
L 8 0 
L 8 52 
L 17.296875 52 
z
M 12.59375 61.40625 
Q 10.09375 61.40625 8.34375 63.046875 
Q 6.59375 64.703125 6.59375 67.5 
Q 6.59375 70.296875 8.34375 71.9375 
Q 10.09375 73.59375 12.59375 73.59375 
Q 15.09375 73.59375 16.84375 71.9375 
Q 18.59375 70.296875 18.59375 67.5 
Q 18.59375 64.703125 16.84375 63.046875 
Q 15.09375 61.40625 12.59375 61.40625 
z
" id="Ubuntu-69"/>
     <path d="M 40.59375 5.203125 
Q 39.40625 4.40625 35.953125 3.15625 
Q 32.5 1.90625 27.90625 1.90625 
Q 23.203125 1.90625 19.046875 3.40625 
Q 14.90625 4.90625 11.796875 8.046875 
Q 8.703125 11.203125 6.890625 15.890625 
Q 5.09375 20.59375 5.09375 27.09375 
Q 5.09375 32.796875 6.796875 37.546875 
Q 8.5 42.296875 11.75 45.75 
Q 15 49.203125 19.703125 51.140625 
Q 24.40625 53.09375 30.296875 53.09375 
Q 36.796875 53.09375 41.640625 52.140625 
Q 46.5 51.203125 49.796875 50.40625 
L 49.796875 4 
Q 49.796875 -8 43.59375 -13.390625 
Q 37.40625 -18.796875 24.796875 -18.796875 
Q 19.90625 -18.796875 15.546875 -18 
Q 11.203125 -17.203125 8 -16.09375 
L 9.703125 -8 
Q 12.5 -9.09375 16.546875 -9.9375 
Q 20.59375 -10.796875 25 -10.796875 
Q 33.296875 -10.796875 36.9375 -7.5 
Q 40.59375 -4.203125 40.59375 3 
z
M 40.5 43.796875 
Q 39.09375 44.203125 36.75 44.546875 
Q 34.40625 44.90625 30.40625 44.90625 
Q 22.90625 44.90625 18.84375 40 
Q 14.796875 35.09375 14.796875 27 
Q 14.796875 22.5 15.9375 19.296875 
Q 17.09375 16.09375 19.046875 14 
Q 21 11.90625 23.546875 10.90625 
Q 26.09375 9.90625 28.796875 9.90625 
Q 32.5 9.90625 35.59375 10.953125 
Q 38.703125 12 40.5 13.40625 
z
" id="Ubuntu-67"/>
     <path d="M 30.59375 -1.203125 
Q 24.296875 -1.203125 19.546875 0.796875 
Q 14.796875 2.796875 11.546875 6.390625 
Q 8.296875 10 6.6875 14.953125 
Q 5.09375 19.90625 5.09375 25.90625 
Q 5.09375 31.90625 6.84375 36.90625 
Q 8.59375 41.90625 11.796875 45.546875 
Q 15 49.203125 19.640625 51.25 
Q 24.296875 53.296875 30 53.296875 
Q 33.5 53.296875 37 52.6875 
Q 40.5 52.09375 43.703125 50.796875 
L 41.59375 42.90625 
Q 39.5 43.90625 36.75 44.5 
Q 34 45.09375 30.90625 45.09375 
Q 23.09375 45.09375 18.9375 40.1875 
Q 14.796875 35.296875 14.796875 25.90625 
Q 14.796875 21.703125 15.75 18.203125 
Q 16.703125 14.703125 18.75 12.203125 
Q 20.796875 9.703125 24 8.34375 
Q 27.203125 7 31.796875 7 
Q 35.5 7 38.5 7.703125 
Q 41.5 8.40625 43.203125 9.203125 
L 44.5 1.40625 
Q 43.703125 0.90625 42.203125 0.453125 
Q 40.703125 0 38.796875 -0.34375 
Q 36.90625 -0.703125 34.75 -0.953125 
Q 32.59375 -1.203125 30.59375 -1.203125 
z
" id="Ubuntu-63"/>
     <path id="Ubuntu-20"/>
     <path d="M 53.90625 26 
Q 53.90625 19.796875 52.09375 14.796875 
Q 50.296875 9.796875 47.046875 6.1875 
Q 43.796875 2.59375 39.296875 0.640625 
Q 34.796875 -1.296875 29.5 -1.296875 
Q 24.203125 -1.296875 19.703125 0.640625 
Q 15.203125 2.59375 11.953125 6.1875 
Q 8.703125 9.796875 6.890625 14.796875 
Q 5.09375 19.796875 5.09375 26 
Q 5.09375 32.09375 6.890625 37.140625 
Q 8.703125 42.203125 11.953125 45.796875 
Q 15.203125 49.40625 19.703125 51.34375 
Q 24.203125 53.296875 29.5 53.296875 
Q 34.796875 53.296875 39.296875 51.34375 
Q 43.796875 49.40625 47.046875 45.796875 
Q 50.296875 42.203125 52.09375 37.140625 
Q 53.90625 32.09375 53.90625 26 
z
M 44.203125 26 
Q 44.203125 34.796875 40.25 39.9375 
Q 36.296875 45.09375 29.5 45.09375 
Q 22.703125 45.09375 18.75 39.9375 
Q 14.796875 34.796875 14.796875 26 
Q 14.796875 17.203125 18.75 12.046875 
Q 22.703125 6.90625 29.5 6.90625 
Q 36.296875 6.90625 40.25 12.046875 
Q 44.203125 17.203125 44.203125 26 
z
" id="Ubuntu-6f"/>
     <path d="M 28.296875 77.59375 
Q 32.40625 77.59375 35.34375 77 
Q 38.296875 76.40625 39.5 75.90625 
L 37.796875 67.90625 
Q 36.59375 68.5 34.390625 69.046875 
Q 32.203125 69.59375 29 69.59375 
Q 22.5 69.59375 19.890625 66.046875 
Q 17.296875 62.5 17.296875 56.5 
L 17.296875 52 
L 37.296875 52 
L 37.296875 44.203125 
L 17.296875 44.203125 
L 17.296875 0 
L 8 0 
L 8 56.703125 
Q 8 66.703125 12.890625 72.140625 
Q 17.796875 77.59375 28.296875 77.59375 
z
" id="Ubuntu-66"/>
     <path d="M 44.09375 25.90625 
Q 44.09375 35 39.59375 39.890625 
Q 35.09375 44.796875 27.59375 44.796875 
Q 23.40625 44.796875 21.046875 44.5 
Q 18.703125 44.203125 17.296875 43.796875 
L 17.296875 11 
Q 19 9.59375 22.203125 8.296875 
Q 25.40625 7 29.203125 7 
Q 33.203125 7 36.046875 8.453125 
Q 38.90625 9.90625 40.703125 12.453125 
Q 42.5 15 43.296875 18.453125 
Q 44.09375 21.90625 44.09375 25.90625 
z
M 53.796875 25.90625 
Q 53.796875 20 52.25 15 
Q 50.703125 10 47.703125 6.390625 
Q 44.703125 2.796875 40.34375 0.796875 
Q 36 -1.203125 30.40625 -1.203125 
Q 25.90625 -1.203125 22.453125 0 
Q 19 1.203125 17.296875 2.296875 
L 17.296875 -18.5 
L 8 -18.5 
L 8 50.40625 
Q 11.296875 51.203125 16.25 52.140625 
Q 21.203125 53.09375 27.703125 53.09375 
Q 33.703125 53.09375 38.5 51.1875 
Q 43.296875 49.296875 46.6875 45.796875 
Q 50.09375 42.296875 51.9375 37.25 
Q 53.796875 32.203125 53.796875 25.90625 
z
" id="Ubuntu-70"/>
     <path d="M 8.59375 0 
L 8.59375 69.296875 
L 50.40625 69.296875 
L 50.40625 61 
L 18.296875 61 
L 18.296875 40.09375 
L 46.796875 40.09375 
L 46.796875 31.90625 
L 18.296875 31.90625 
L 18.296875 0 
z
" id="Ubuntu-46"/>
     <path d="M 25.59375 6.703125 
Q 28.90625 6.703125 31.453125 6.84375 
Q 34 7 35.703125 7.40625 
L 35.703125 22.90625 
Q 34.703125 23.40625 32.453125 23.75 
Q 30.203125 24.09375 27 24.09375 
Q 24.90625 24.09375 22.546875 23.796875 
Q 20.203125 23.5 18.25 22.546875 
Q 16.296875 21.59375 15 19.9375 
Q 13.703125 18.296875 13.703125 15.59375 
Q 13.703125 10.59375 16.890625 8.640625 
Q 20.09375 6.703125 25.59375 6.703125 
z
M 24.796875 53.296875 
Q 30.40625 53.296875 34.25 51.84375 
Q 38.09375 50.40625 40.4375 47.75 
Q 42.796875 45.09375 43.796875 41.4375 
Q 44.796875 37.796875 44.796875 33.40625 
L 44.796875 0.90625 
Q 43.59375 0.703125 41.4375 0.34375 
Q 39.296875 0 36.59375 -0.296875 
Q 33.90625 -0.59375 30.75 -0.84375 
Q 27.59375 -1.09375 24.5 -1.09375 
Q 20.09375 -1.09375 16.390625 -0.1875 
Q 12.703125 0.703125 10 2.640625 
Q 7.296875 4.59375 5.796875 7.796875 
Q 4.296875 11 4.296875 15.5 
Q 4.296875 19.796875 6.046875 22.890625 
Q 7.796875 26 10.796875 27.890625 
Q 13.796875 29.796875 17.796875 30.6875 
Q 21.796875 31.59375 26.203125 31.59375 
Q 27.59375 31.59375 29.09375 31.4375 
Q 30.59375 31.296875 31.9375 31.046875 
Q 33.296875 30.796875 34.296875 30.59375 
Q 35.296875 30.40625 35.703125 30.296875 
L 35.703125 32.90625 
Q 35.703125 35.203125 35.203125 37.453125 
Q 34.703125 39.703125 33.390625 41.453125 
Q 32.09375 43.203125 29.84375 44.25 
Q 27.59375 45.296875 24 45.296875 
Q 19.40625 45.296875 15.953125 44.640625 
Q 12.5 44 10.796875 43.296875 
L 9.703125 51 
Q 11.5 51.796875 15.703125 52.546875 
Q 19.90625 53.296875 24.796875 53.296875 
z
" id="Ubuntu-61"/>
     <path d="M 26.796875 28.59375 
Q 29.796875 26.296875 33.140625 22.890625 
Q 36.5 19.5 39.75 15.546875 
Q 43 11.59375 45.890625 7.546875 
Q 48.796875 3.5 50.796875 0 
L 39.90625 0 
Q 37.796875 3.5 35.046875 7.140625 
Q 32.296875 10.796875 29.296875 14.140625 
Q 26.296875 17.5 23.1875 20.296875 
Q 20.09375 23.09375 17.296875 25 
L 17.296875 0 
L 8 0 
L 8 76 
L 17.296875 77.59375 
L 17.296875 30.203125 
Q 19.703125 32.59375 22.59375 35.5 
Q 25.5 38.40625 28.296875 41.40625 
Q 31.09375 44.40625 33.59375 47.15625 
Q 36.09375 49.90625 37.90625 52 
L 48.796875 52 
Q 46.5 49.5 43.796875 46.5 
Q 41.09375 43.5 38.1875 40.453125 
Q 35.296875 37.40625 32.34375 34.34375 
Q 29.40625 31.296875 26.796875 28.59375 
z
" id="Ubuntu-6b"/>
     <path d="M 41.59375 41 
Q 39.90625 42.40625 36.703125 43.703125 
Q 33.5 45 29.703125 45 
Q 25.703125 45 22.84375 43.546875 
Q 20 42.09375 18.203125 39.546875 
Q 16.40625 37 15.59375 33.5 
Q 14.796875 30 14.796875 26 
Q 14.796875 16.90625 19.296875 11.953125 
Q 23.796875 7 31.296875 7 
Q 35.09375 7 37.640625 7.34375 
Q 40.203125 7.703125 41.59375 8.09375 
z
M 41.59375 76 
L 50.90625 77.59375 
L 50.90625 1.5 
Q 47.703125 0.59375 42.703125 -0.296875 
Q 37.703125 -1.203125 31.203125 -1.203125 
Q 25.203125 -1.203125 20.390625 0.6875 
Q 15.59375 2.59375 12.1875 6.09375 
Q 8.796875 9.59375 6.9375 14.640625 
Q 5.09375 19.703125 5.09375 26 
Q 5.09375 32 6.640625 37 
Q 8.203125 42 11.203125 45.59375 
Q 14.203125 49.203125 18.546875 51.203125 
Q 22.90625 53.203125 28.5 53.203125 
Q 33 53.203125 36.453125 52 
Q 39.90625 50.796875 41.59375 49.703125 
z
" id="Ubuntu-64"/>
    </defs>
    <g transform="translate(47.344359 32.076875)scale(0.192 -0.192)">
     <use xlink:href="#Ubuntu-49"/>
     <use x="26.899994" xlink:href="#Ubuntu-6e"/>
     <use x="84.299988" xlink:href="#Ubuntu-74"/>
     <use x="124.48436" xlink:href="#Ubuntu-65"/>
     <use x="180.384354" xlink:href="#Ubuntu-6c"/>
     <use x="207.684341" xlink:href="#Ubuntu-6c"/>
     <use x="234.984329" xlink:href="#Ubuntu-69"/>
     <use x="260.284317" xlink:href="#Ubuntu-67"/>
     <use x="318.084305" xlink:href="#Ubuntu-65"/>
     <use x="373.984299" xlink:href="#Ubuntu-6e"/>
     <use x="431.384293" xlink:href="#Ubuntu-63"/>
     <use x="477.884277" xlink:href="#Ubuntu-65"/>
     <use x="533.784271" xlink:href="#Ubuntu-20"/>
     <use x="556.884262" xlink:href="#Ubuntu-6f"/>
     <use x="615.884247" xlink:href="#Ubuntu-66"/>
     <use x="654.484238" xlink:href="#Ubuntu-20"/>
     <use x="677.584229" xlink:href="#Ubuntu-70"/>
     <use x="736.484222" xlink:href="#Ubuntu-65"/>
     <use x="792.384216" xlink:href="#Ubuntu-6f"/>
     <use x="851.384201" xlink:href="#Ubuntu-70"/>
     <use x="910.284195" xlink:href="#Ubuntu-6c"/>
     <use x="937.584183" xlink:href="#Ubuntu-65"/>
     <use x="993.484177" xlink:href="#Ubuntu-20"/>
     <use x="1016.584167" xlink:href="#Ubuntu-69"/>
     <use x="1041.884155" xlink:href="#Ubuntu-6e"/>
     <use x="1099.284149" xlink:href="#Ubuntu-20"/>
     <use x="1122.38414" xlink:href="#Ubuntu-46"/>
     <use x="1176.006012" xlink:href="#Ubuntu-61"/>
     <use x="1228.206009" xlink:href="#Ubuntu-6b"/>
     <use x="1280.374756" xlink:href="#Ubuntu-65"/>
     <use x="1336.27475" xlink:href="#Ubuntu-6c"/>
     <use x="1363.574738" xlink:href="#Ubuntu-61"/>
     <use x="1415.774734" xlink:href="#Ubuntu-6e"/>
     <use x="1473.174728" xlink:href="#Ubuntu-64"/>
    </g>
   </g>
  </g>
 </g>
 <defs>
  <clipPath id="pef75f16e5f">
   <rect height="261.143125" width="286.046719" x="51.405" y="38.076875"/>
  </clipPath>
 </defs>
</svg>
